<?xml version="1.0" encoding="utf-8"?>
<!-- Generator: Adobe Illustrator 24.1.1, SVG Export Plug-In . SVG Version: 6.00 Build 0)  -->
<svg version="1.0" id="Слой_1" xmlns="http://www.w3.org/2000/svg" xmlns:xlink="http://www.w3.org/1999/xlink" x="0px" y="0px"
	 viewBox="0 0 37 37" style="enable-background:new 0 0 37 37;" xml:space="preserve">
<style type="text/css">
	.st0{fill:#FFFFFF;}
	.st1{fill:#E9041E;}
</style>
<path d="M26.9,0H5.5C2.5,0,0,2.5,0,5.5v12.5c0,3,2.5,5.5,5.5,5.5h0.2v3.3c0,0.3,0.2,0.6,0.4,0.7c0.1,0,0.2,0.1,0.3,0.1
	c0.2,0,0.4-0.1,0.5-0.2l3.8-3.8h2.7c0.4,0,0.7-0.3,0.7-0.7c0-0.4-0.3-0.7-0.7-0.7h-3c-0.2,0-0.4,0.1-0.5,0.2L7.2,25v-2.3
	c0-0.4-0.3-0.7-0.7-0.7h-1c-2.2,0-4-1.8-4-4V5.5c0-2.2,1.8-4,4-4h21.4c2.2,0,4,1.8,4,4v6.2c0,0.4,0.3,0.7,0.7,0.7
	c0.4,0,0.7-0.3,0.7-0.7V5.5C32.4,2.5,29.9,0,26.9,0z"/>
<path class="st0" d="M18.7,17.2c-0.4,0-0.7,0.3-0.7,0.7v0c0,0.4,0.3,0.7,0.7,0.7c0.4,0,0.7-0.3,0.7-0.7v0
	C19.4,17.5,19.1,17.2,18.7,17.2z"/>
<path class="st1" d="M15,29.3c0,1.2,0.9,2.2,2.1,2.3C17,31.9,17,32.2,17,32.5v0c0,1.3,1,2.3,2.3,2.3h10.1c0.1,0,0.2,0,0.3,0l1.2-0.5
	c0,0.4,0.3,0.7,0.7,0.7h3.8c0.4,0,0.7-0.3,0.7-0.7V21.6c0-0.4-0.3-0.7-0.7-0.7h-3.8c-0.2,0-0.4,0.1-0.5,0.3l-6.4-7.7
	c-0.1-0.2-0.3-0.3-0.6-0.3c0,0,0,0,0,0c-0.2,0-0.4,0.1-0.5,0.3l-0.3,0.3c-1.1,1.3-1.4,3.2-0.6,4.8l1,2.1h-4.3c-1.3,0-2.3,1-2.3,2.3
	v0c0,0.3,0.1,0.6,0.2,0.9C16,24,15,24.9,15,26.1v0c0,0.6,0.2,1.2,0.6,1.6C15.3,28.2,15,28.7,15,29.3L15,29.3z M32.2,23
	c0-0.1,0-0.1,0-0.2v-0.5h2.3v11.3h-2.3V23z M16.5,29.3c0-0.5,0.4-0.9,0.9-0.9h4.8c0.4,0,0.7-0.3,0.7-0.7c0-0.4-0.3-0.7-0.7-0.7h-4.8
	c-0.5,0-0.9-0.4-0.9-0.9v0c0-0.5,0.4-0.9,0.9-0.9h4.8c0.4,0,0.7-0.3,0.7-0.7c0-0.4-0.3-0.7-0.7-0.7h-2.9c-0.5,0-0.9-0.4-0.9-0.9v0
	c0-0.5,0.4-0.9,0.9-0.9h5.5c0.2,0,0.5-0.1,0.6-0.3c0.1-0.2,0.1-0.5,0-0.7l-1.5-3.2c-0.4-0.9-0.4-2,0.2-2.9l6.7,8.1v9.6l-1.6,0.6
	h-9.9c-0.5,0-0.9-0.4-0.9-0.9v0c0-0.5,0.4-0.9,0.9-0.9h2.9c0.4,0,0.7-0.3,0.7-0.7c0-0.4-0.3-0.7-0.7-0.7h-2.9h-1.9
	C16.9,30.2,16.5,29.8,16.5,29.3L16.5,29.3z"/>
<path d="M26.9,11H5.5c-0.4,0-0.7,0.3-0.7,0.7c0,0.4,0.3,0.7,0.7,0.7h21.4c0.4,0,0.7-0.3,0.7-0.7C27.6,11.3,27.3,11,26.9,11z"/>
<path d="M23,6.4H5.5c-0.4,0-0.7,0.3-0.7,0.7c0,0.4,0.3,0.7,0.7,0.7H23c0.4,0,0.7-0.3,0.7-0.7C23.7,6.7,23.4,6.4,23,6.4z"/>
<path class="st0" d="M27.4,6.6c-0.1-0.1-0.3-0.2-0.5-0.2c-0.2,0-0.4,0.1-0.5,0.2c-0.1,0.1-0.2,0.3-0.2,0.5c0,0.2,0.1,0.4,0.2,0.5
	c0.1,0.1,0.3,0.2,0.5,0.2c0.2,0,0.4-0.1,0.5-0.2c0.1-0.1,0.2-0.3,0.2-0.5C27.6,6.9,27.5,6.7,27.4,6.6z"/>
<path d="M13.5,15.6h-8c-0.4,0-0.7,0.3-0.7,0.7c0,0.4,0.3,0.7,0.7,0.7h8c0.4,0,0.7-0.3,0.7-0.7C14.2,15.9,13.9,15.6,13.5,15.6z"/>
</svg>
