<?xml version="1.0" encoding="utf-8"?>
<!-- Generator: Adobe Illustrator 24.1.1, SVG Export Plug-In . SVG Version: 6.00 Build 0)  -->
<svg version="1.1" id="Слой_1" xmlns="http://www.w3.org/2000/svg" xmlns:xlink="http://www.w3.org/1999/xlink" x="0px" y="0px"
	 viewBox="0 0 37 37" style="enable-background:new 0 0 37 37;" xml:space="preserve">
<style type="text/css">
	.st0{clip-path:url(#SVGID_2_);}
	.st1{fill:#1D1D1B;}
	.st2{fill:#FFFFFF;}
	.st3{fill:#E9041E;}
</style>
<g>
	<defs>
		<rect id="SVGID_1_" width="37" height="37"/>
	</defs>
	<clipPath id="SVGID_2_">
		<use xlink:href="#SVGID_1_"  style="overflow:visible;"/>
	</clipPath>
	<g class="st0">
		<path class="st1" d="M26.9,0H5.5C2.5,0,0,2.5,0,5.5v12.5c0,3,2.5,5.5,5.5,5.5h0.2v3.3c0,0.3,0.2,0.6,0.4,0.7
			c0.1,0,0.2,0.1,0.3,0.1c0.2,0,0.4-0.1,0.5-0.2l3.8-3.8h2.7c0.4,0,0.7-0.3,0.7-0.7c0-0.4-0.3-0.7-0.7-0.7h-3
			c-0.2,0-0.4,0.1-0.5,0.2L7.2,25v-2.3c0-0.4-0.3-0.7-0.7-0.7h-1c-2.2,0-4-1.8-4-4V5.5c0-2.2,1.8-4,4-4h21.4c2.2,0,4,1.8,4,4v6.2
			c0,0.4,0.3,0.7,0.7,0.7c0.4,0,0.7-0.3,0.7-0.7V5.5C32.4,2.5,29.9,0,26.9,0z"/>
		<path class="st2" d="M18.7,17.2c-0.4,0-0.7,0.3-0.7,0.7v0c0,0.4,0.3,0.7,0.7,0.7c0.4,0,0.7-0.3,0.7-0.7v0
			C19.4,17.5,19.1,17.2,18.7,17.2z"/>
		<path class="st3" d="M37,20.8c0-1.2-0.9-2.2-2.1-2.3c0.1-0.3,0.2-0.6,0.2-0.9v0c0-1.3-1-2.3-2.3-2.3H22.7c-0.1,0-0.2,0-0.3,0
			l-1.2,0.5c0-0.4-0.3-0.7-0.7-0.7h-3.8c-0.4,0-0.7,0.3-0.7,0.7v12.7c0,0.4,0.3,0.7,0.7,0.7h3.8c0.2,0,0.4-0.1,0.5-0.3l6.4,7.7
			c0.1,0.2,0.3,0.3,0.6,0.3c0,0,0,0,0,0c0.2,0,0.4-0.1,0.5-0.3l0.3-0.3c1.1-1.3,1.4-3.2,0.6-4.8l-1-2.1h4.3c1.3,0,2.3-1,2.3-2.3v0
			c0-0.3-0.1-0.6-0.2-0.9c1.2-0.1,2.1-1.1,2.1-2.3v0c0-0.6-0.2-1.2-0.6-1.6C36.8,22,37,21.4,37,20.8L37,20.8z M19.8,27.2
			c0,0.1,0,0.1,0,0.2v0.5h-2.3V16.6h2.3V27.2z M35.6,20.8c0,0.5-0.4,0.9-0.9,0.9h-4.8c-0.4,0-0.7,0.3-0.7,0.7c0,0.4,0.3,0.7,0.7,0.7
			h4.8c0.5,0,0.9,0.4,0.9,0.9v0c0,0.5-0.4,0.9-0.9,0.9h-4.8c-0.4,0-0.7,0.3-0.7,0.7c0,0.4,0.3,0.7,0.7,0.7h2.9
			c0.5,0,0.9,0.4,0.9,0.9v0c0,0.5-0.4,0.9-0.9,0.9h-5.5c-0.2,0-0.5,0.1-0.6,0.3c-0.1,0.2-0.1,0.5,0,0.7l1.5,3.2
			c0.4,0.9,0.4,2-0.2,2.9L21.3,27v-9.6l1.6-0.6h9.9c0.5,0,0.9,0.4,0.9,0.9v0c0,0.5-0.4,0.9-0.9,0.9h-2.9c-0.4,0-0.7,0.3-0.7,0.7
			c0,0.4,0.3,0.7,0.7,0.7h2.9h1.9C35.2,19.9,35.6,20.3,35.6,20.8L35.6,20.8z"/>
		<path class="st1" d="M26.9,11H5.5c-0.4,0-0.7,0.3-0.7,0.7c0,0.4,0.3,0.7,0.7,0.7h21.4c0.4,0,0.7-0.3,0.7-0.7
			C27.6,11.3,27.3,11,26.9,11z"/>
		<path class="st1" d="M23,6.4H5.5c-0.4,0-0.7,0.3-0.7,0.7c0,0.4,0.3,0.7,0.7,0.7H23c0.4,0,0.7-0.3,0.7-0.7
			C23.7,6.7,23.4,6.4,23,6.4z"/>
		<path class="st2" d="M27.4,6.6c-0.1-0.1-0.3-0.2-0.5-0.2c-0.2,0-0.4,0.1-0.5,0.2c-0.1,0.1-0.2,0.3-0.2,0.5c0,0.2,0.1,0.4,0.2,0.5
			c0.1,0.1,0.3,0.2,0.5,0.2c0.2,0,0.4-0.1,0.5-0.2c0.1-0.1,0.2-0.3,0.2-0.5C27.6,6.9,27.5,6.7,27.4,6.6z"/>
		<path class="st1" d="M13.5,15.6h-8c-0.4,0-0.7,0.3-0.7,0.7c0,0.4,0.3,0.7,0.7,0.7h8c0.4,0,0.7-0.3,0.7-0.7
			C14.2,15.9,13.9,15.6,13.5,15.6z"/>
	</g>
</g>
</svg>
