<svg width="36" height="36" viewBox="0 0 36 36" fill="none" xmlns="http://www.w3.org/2000/svg">
<g clip-path="url(#clip0_66_276)">
<path d="M30.9375 34.3125V32.0625H31.5C31.6492 32.0625 31.7923 32.0032 31.8977 31.8977C32.0032 31.7923 32.0625 31.6492 32.0625 31.5V28.125C32.0625 27.9758 32.0032 27.8327 31.8977 27.7273C31.7923 27.6218 31.6492 27.5625 31.5 27.5625H31.2277L32.5778 24.4091C32.6086 24.3393 32.6247 24.2638 32.625 24.1875V20.8125C32.6248 20.7014 32.592 20.5928 32.5305 20.5003L31.9883 19.6875H33.1875C33.3367 19.6875 33.4798 19.6282 33.5852 19.5227C33.6907 19.4173 33.75 19.2742 33.75 19.125V1.125C33.75 0.975816 33.6907 0.832742 33.5852 0.727252C33.4798 0.621763 33.3367 0.5625 33.1875 0.5625H2.8125C2.66332 0.5625 2.52024 0.621763 2.41475 0.727252C2.30926 0.832742 2.25 0.975816 2.25 1.125V19.125C2.25 19.2742 2.30926 19.4173 2.41475 19.5227C2.52024 19.6282 2.66332 19.6875 2.8125 19.6875H21.7198L21.8323 20.0199L20.502 20.907C20.4087 20.9688 20.3359 21.0571 20.293 21.1605C20.2501 21.2639 20.2391 21.3778 20.2612 21.4875L20.8237 24.3C20.8351 24.3594 20.8564 24.4164 20.8867 24.4688L22.6558 27.5625H22.5C22.3508 27.5625 22.2077 27.6218 22.1023 27.7273C21.9968 27.8327 21.9375 27.9758 21.9375 28.125V31.5C21.9375 31.6492 21.9968 31.7923 22.1023 31.8977C22.2077 32.0032 22.3508 32.0625 22.5 32.0625H23.0625V34.3125H0.5625V35.4375H35.4375V34.3125H30.9375ZM30.9375 30.9375H23.0625V28.6875H30.9375V30.9375ZM3.375 18.5625V1.6875H32.625V18.5625H30.1601L29.5976 17.4375H30.9375C31.0867 17.4375 31.2298 17.3782 31.3352 17.2727C31.4407 17.1673 31.5 17.0242 31.5 16.875V3.375C31.5 3.22582 31.4407 3.08274 31.3352 2.97725C31.2298 2.87176 31.0867 2.8125 30.9375 2.8125H5.0625C4.91332 2.8125 4.77024 2.87176 4.66475 2.97725C4.55926 3.08274 4.5 3.22582 4.5 3.375V16.875C4.5 17.0242 4.55926 17.1673 4.66475 17.2727C4.77024 17.3782 4.91332 17.4375 5.0625 17.4375H21.375V18.5625H3.375ZM24.1875 10.0013V7.875H25.3125C25.6109 7.875 25.897 7.99353 26.108 8.2045C26.319 8.41548 26.4375 8.70163 26.4375 9C26.4375 9.29837 26.319 9.58452 26.108 9.7955C25.897 10.0065 25.6109 10.125 25.3125 10.125H24.3113C24.2719 10.0817 24.2308 10.0406 24.1875 10.0013ZM24.75 11.25H25.3125C25.9092 11.25 26.4815 11.0129 26.9035 10.591C27.3254 10.169 27.5625 9.59674 27.5625 9C27.5625 8.40326 27.3254 7.83097 26.9035 7.40901C26.4815 6.98705 25.9092 6.75 25.3125 6.75H23.625C23.4758 6.75 23.3327 6.80926 23.2273 6.91475C23.1218 7.02024 23.0625 7.16332 23.0625 7.3125V9.5625C22.6149 9.5625 22.1857 9.74029 21.8693 10.0568C21.5528 10.3732 21.375 10.8024 21.375 11.25V12.375H19.6875V6.75H18.5625V12.9375C18.5625 13.0867 18.6218 13.2298 18.7273 13.3352C18.8327 13.4407 18.9758 13.5 19.125 13.5H21.375V16.3125H5.625V3.9375H30.375V16.3125H27.7954L26.8352 15.3523C26.7297 15.2468 26.5867 15.1875 26.4375 15.1875H25.3125C25.2199 15.1875 25.1288 15.2103 25.0471 15.254C24.9655 15.2977 24.8959 15.3608 24.8445 15.4378L24.75 15.5813V11.25ZM21.9088 23.9878L21.438 21.6343L22.1996 21.1281L22.5292 22.1169L23.598 21.7614L22.5 18.4714V11.25C22.5 11.1008 22.5593 10.9577 22.6648 10.8523C22.7702 10.7468 22.9133 10.6875 23.0625 10.6875C23.2117 10.6875 23.3548 10.7468 23.4602 10.8523C23.5657 10.9577 23.625 11.1008 23.625 11.25V17.4375C23.625 17.5582 23.6638 17.6758 23.7357 17.7727C23.8076 17.8697 23.9089 17.941 24.0244 17.976C24.14 18.011 24.2637 18.0079 24.3774 17.9671C24.491 17.9264 24.5885 17.8501 24.6555 17.7497L25.6134 16.3125H26.2046L27.1648 17.2727C27.2703 17.3782 27.4133 17.4375 27.5625 17.4375H28.3399L29.3091 19.3764C29.3558 19.4699 29.4276 19.5486 29.5166 19.6035C29.6055 19.6585 29.708 19.6875 29.8125 19.6875H30.6366L31.5 20.9812V24.075L30.0043 27.5625H23.9513L21.9088 23.9878ZM24.1875 32.0625H29.8125V34.3125H24.1875V32.0625Z" fill="white"/>
<path d="M11.8125 9.5625H9.5625V6.75H8.4375V13.5H9.5625V10.6875H11.8125V13.5H12.9375V6.75H11.8125V9.5625Z" fill="white"/>
<path d="M14.0625 7.3125V12.9375C14.0625 13.0867 14.1218 13.2298 14.2273 13.3352C14.3327 13.4407 14.4758 13.5 14.625 13.5H17.4375V12.375H15.1875V10.6875H17.4375V9.5625H15.1875V7.875H17.4375V6.75H14.625C14.4758 6.75 14.3327 6.80926 14.2273 6.91475C14.1218 7.02024 14.0625 7.16332 14.0625 7.3125Z" fill="white"/>
<line x1="8.49944e-08" y1="35" x2="36" y2="35" stroke="white" stroke-width="2"/>
</g>
<defs>
<clipPath id="clip0_66_276">
<rect width="36" height="36" fill="white"/>
</clipPath>
</defs>
</svg>
