<svg width="37" height="37" viewBox="0 0 37 37" fill="none" xmlns="http://www.w3.org/2000/svg">
<path d="M30.0269 32.2258L28.6454 28.0806C28.1626 26.6334 26.9309 25.5652 25.4294 25.2919L21.4411 24.5662V24.2571C22.1352 23.8543 22.7391 23.3154 23.2201 22.6774H24.425C25.4121 22.6774 26.2153 21.8742 26.2153 20.8871V13.7258C26.2153 9.44813 22.735 5.96774 18.4573 5.96774C14.1796 5.96774 10.6992 9.44813 10.6992 13.7258V17.9032C10.6992 19.0538 11.5174 20.0164 12.6023 20.2408C12.9371 21.9559 14.0089 23.4073 15.4734 24.2571V24.5662L11.4846 25.2919C9.98368 25.5652 8.75134 26.6334 8.26915 28.0806L8.03044 28.7973L5.99783 26.7647C5.76508 26.532 5.76508 26.153 5.99783 25.9203L8.35508 23.5636L3.9306 19.1391L1.2666 21.8031C0.477664 22.5921 0.0432129 23.6412 0.0432129 24.7572C0.0432129 25.8731 0.477664 26.9217 1.2666 27.7106L9.332 35.776C10.1209 36.565 11.1701 37 12.286 37C13.402 37 14.4505 36.565 15.221 35.7939L18.1279 33.1305L17.2214 32.2258H30.0269ZM25.0218 20.8871C25.0218 21.2165 24.7538 21.4839 24.425 21.4839H23.9231C24.0962 21.0894 24.2275 20.6735 24.3122 20.2408C24.5676 20.1877 24.8028 20.0862 25.0218 19.9585V20.8871ZM24.425 18.9309V16.8756C24.7801 17.0827 25.0218 17.4634 25.0218 17.9032C25.0218 18.343 24.7801 18.7238 24.425 18.9309ZM12.4895 18.9309C12.1345 18.7238 11.8928 18.343 11.8928 17.9032C11.8928 17.4634 12.1345 17.0827 12.4895 16.8756V18.9309ZM12.4895 14.9194V15.6009C12.2771 15.6564 12.0778 15.7399 11.8928 15.8479V13.7258C11.8928 10.1064 14.8378 7.16129 18.4573 7.16129C22.0767 7.16129 25.0218 10.1064 25.0218 13.7258V15.8479C24.8368 15.7399 24.6375 15.6558 24.425 15.6009V14.9194H23.8282C22.0636 14.9194 20.4046 14.2319 19.1561 12.984L18.4573 12.2852L17.7585 12.984C16.51 14.2319 14.851 14.9194 13.0863 14.9194H12.4895ZM13.6831 19.0968V16.0902C15.4752 15.9554 17.1462 15.216 18.4573 13.9693C19.7684 15.216 21.4394 15.956 23.2315 16.0902V19.0968C23.2315 19.9669 22.994 20.7809 22.5858 21.4839H18.4573V22.6774H21.6047C20.7632 23.418 19.6634 23.871 18.4573 23.871C15.8249 23.871 13.6831 21.7291 13.6831 19.0968ZM20.2476 24.7894V24.8175L18.4573 26.6078L16.667 24.8175V24.7894C17.2327 24.9672 17.8336 25.0645 18.4573 25.0645C19.0809 25.0645 19.6819 24.9672 20.2476 24.7894ZM9.40063 28.4578C9.74497 27.4242 10.6252 26.6609 11.6976 26.4651L15.8691 25.7072L18.4573 28.2955L21.0449 25.7078L25.2157 26.4657C26.2881 26.6615 27.1684 27.4242 27.5127 28.4584L28.3715 31.0323H16.0278L13.7034 28.7078L11.1205 31.0442C10.8956 31.2704 10.5023 31.2704 10.2767 31.0442L8.97334 29.7408L9.40063 28.4578ZM3.93 20.8268L6.66681 23.5636L6.01871 24.2117L3.28191 21.4749L3.93 20.8268ZM14.3944 34.9334C13.8311 35.4955 13.0815 35.8065 12.2848 35.8065C11.4881 35.8065 10.7386 35.4955 10.1746 34.9322L2.10925 26.8674C1.54589 26.304 1.23557 25.5545 1.23557 24.7578C1.23557 23.9605 1.54589 23.2109 2.10925 22.6476L2.43747 22.3194L5.17428 25.0562L5.15279 25.0776C4.45516 25.7759 4.45516 26.9115 5.15279 27.6098L9.43226 31.8892C9.77063 32.227 10.22 32.4138 10.6986 32.4138C11.1772 32.4138 11.6266 32.2276 11.9429 31.9101L11.9876 31.8701L14.737 34.6195L14.3944 34.9334ZM15.6178 33.8114L12.8745 31.0681L13.6628 30.3555L16.4014 33.0941L15.6178 33.8114Z" fill="white"/>
<path d="M35.1669 0H26.812C25.825 0 25.0217 0.803258 25.0217 1.79032V6.56452C25.0217 7.55158 25.825 8.35484 26.812 8.35484H28.406L27.789 11.954L33.5478 8.35484H35.1669C36.1539 8.35484 36.9572 7.55158 36.9572 6.56452V1.79032C36.9572 0.803258 36.1539 0 35.1669 0ZM35.7637 6.56452C35.7637 6.89334 35.4957 7.16129 35.1669 7.16129H33.2053L29.4152 9.52989L29.8216 7.16129H26.812C26.4832 7.16129 26.2153 6.89334 26.2153 6.56452V1.79032C26.2153 1.4615 26.4832 1.19355 26.812 1.19355H35.1669C35.4957 1.19355 35.7637 1.4615 35.7637 1.79032V6.56452Z" fill="white"/>
<path d="M34.5702 2.38708H27.4089V3.58063H34.5702V2.38708Z" fill="white"/>
<path d="M32.1831 4.7742H27.4089V5.96775H32.1831V4.7742Z" fill="white"/>
<path d="M34.5703 4.7742H33.3767V5.96775H34.5703V4.7742Z" fill="white"/>
<path d="M18.4574 1.79033C10.6599 1.79033 3.94324 7.18397 2.19708 14.7075L1.06619 12.8223L0.0427246 13.4364L2.14039 16.9317L5.63569 14.834L5.02161 13.8106L3.40435 14.7809C5.09561 7.89831 11.2848 2.98388 18.4574 2.98388C20.0251 2.98388 21.572 3.21662 23.0549 3.67614L23.4082 2.5363C21.8107 2.04097 20.1451 1.79033 18.4574 1.79033Z" fill="white"/>
<path d="M36.6672 13.2138L33.1719 11.1161L31.0749 14.612L32.0983 15.2261L33.1427 13.4853C33.6923 15.0936 33.9734 16.7759 33.9734 18.5C33.9734 22.049 32.744 25.5187 30.5127 28.2692L31.4395 29.0211C33.8433 26.0587 35.1669 22.3217 35.1669 18.5C35.1669 16.6745 34.8727 14.8919 34.2992 13.1851L36.0531 14.2372L36.6672 13.2138Z" fill="white"/>
</svg>
