<svg width="37" height="37" viewBox="0 0 37 37" fill="none" xmlns="http://www.w3.org/2000/svg">
<g clip-path="url(#clip0_69_766)">
<path d="M10.2635 31.3758C8.21146 31.3758 6.03059 30.064 6.03059 27.6418V9.41452C6.03059 7.18537 7.44691 5.62421 9.47484 5.62421H21.7873L19.1398 8.27177C18.8178 8.57754 18.8099 9.0926 19.1237 9.40645C19.4295 9.72837 19.9445 9.73636 20.2584 9.42252C20.2665 9.41444 20.2745 9.40645 20.2745 9.40645L24.2981 5.38278C24.612 5.06894 24.612 4.56195 24.2981 4.2481L20.2745 0.224442C19.9525 -0.0813332 19.4455 -0.0733362 19.1398 0.240511C18.842 0.554359 18.842 1.04527 19.1398 1.35912L21.7954 4.00668H9.48292C6.54565 4.01476 4.42114 6.28412 4.42114 9.41452V27.6418C4.42114 30.6355 6.98828 32.9853 10.2635 32.9853C10.7062 32.9853 11.0683 32.6232 11.0683 32.1805C11.0683 31.7379 10.7062 31.3758 10.2635 31.3758Z" fill="white"/>
<path d="M27.509 4.01477C27.0664 4.01477 26.7043 4.3769 26.7043 4.81953C26.7043 5.26216 27.0664 5.6243 27.509 5.6243C29.7462 5.6243 30.9774 6.89576 30.9774 9.19733V27.3281C30.9774 29.3399 29.8991 31.3759 27.4849 31.3759H16.8221L19.4697 28.7283C19.7754 28.4064 19.7674 27.8994 19.4536 27.5936C19.1397 27.2959 18.6488 27.2959 18.335 27.5936L14.3113 31.6173C13.9975 31.9311 13.9975 32.4381 14.3113 32.752L18.335 36.7756C18.6569 37.0814 19.1639 37.0734 19.4697 36.7596C19.7674 36.4457 19.7674 35.9548 19.4697 35.641L16.8221 32.9853H27.4768C30.4785 32.9853 32.5789 30.6596 32.5789 27.328V9.19726C32.5869 6.00242 30.6395 4.01477 27.509 4.01477Z" fill="white"/>
</g>
<defs>
<clipPath id="clip0_69_766">
<rect width="37" height="37" fill="white"/>
</clipPath>
</defs>
</svg>
