<svg width="36" height="36" viewBox="0 0 36 36" fill="none" xmlns="http://www.w3.org/2000/svg">
<g clip-path="url(#clip0_69_801)">
<path d="M18.0749 6.29321C11.6199 6.29321 6.36816 11.5446 6.36816 17.9999C6.36816 24.4549 11.6199 29.7066 18.0749 29.7066C24.5302 29.7066 29.7816 24.4549 29.7816 17.9999C29.7816 11.5446 24.5302 6.29321 18.0749 6.29321ZM12.1828 26.5666V22.4631C12.186 21.2004 13.1287 20.1372 14.3818 19.9828C16.038 21.9129 18.9015 22.2412 20.9512 20.7359C21.2511 20.5166 21.5247 20.2641 21.767 19.9828C23.0207 20.1372 23.9634 21.2001 23.9669 22.4631V26.5666C22.2484 27.7206 20.2579 28.3973 18.0749 28.3973C15.8919 28.3973 13.9014 27.7206 12.1828 26.5666ZM25.2763 25.4992V22.4631C25.2708 20.36 23.5661 18.6572 21.4627 18.6546C21.2546 18.6546 21.0586 18.754 20.9352 18.9218C20.2665 19.8322 19.2046 20.3702 18.0749 20.3702C16.9452 20.3702 15.8829 19.8322 15.2142 18.9218C15.0911 18.754 14.8952 18.6546 14.6871 18.6546C12.584 18.6572 10.8789 20.36 10.8735 22.4631V25.4992C8.83085 23.5391 7.67527 20.8309 7.67367 17.9999C7.67367 12.2668 12.3398 7.60255 18.073 7.60255C23.8061 7.60255 28.4748 12.2671 28.4748 17.9999C28.4738 20.8309 27.3186 23.5391 25.2763 25.4992Z" fill="white"/>
<path d="M33.9647 19.8364C34.1229 18.3768 34.0845 16.9025 33.8512 15.4528L35.663 13.7152C35.8612 13.5253 35.9197 13.2318 35.8098 12.9802L33.747 8.26489C33.6357 8.01044 33.3762 7.85381 33.099 7.87459L30.5909 8.05903C29.6882 6.89737 28.617 5.87701 27.4128 5.03182L27.4864 2.5263C27.4947 2.24883 27.3268 1.9963 27.0679 1.89624L22.2685 0.0437933C22.0105 -0.055622 21.7177 0.0175809 21.5371 0.22696L19.9119 2.11042C18.452 1.9525 16.9774 1.99054 15.5278 2.2239L13.7901 0.412045C13.6002 0.213854 13.3067 0.155356 13.0552 0.26532L8.34012 2.32875C8.08567 2.43999 7.92903 2.69956 7.94949 2.97638L8.13394 5.48478C6.97228 6.38751 5.95191 7.4587 5.10672 8.66255L2.6012 8.58903C2.32341 8.57976 2.07056 8.7479 1.97114 9.00779L0.119014 13.8069C0.0192794 14.0649 0.0924823 14.3574 0.301862 14.5383L2.18564 16.1635C2.02741 17.623 2.06544 19.0973 2.29912 20.547L0.486947 22.2847C0.288756 22.4746 0.230257 22.768 0.340541 23.0196L2.40365 27.7346C2.51489 27.9891 2.77446 28.1457 3.05161 28.1253L5.55969 27.9408C6.46242 29.1025 7.53361 30.1228 8.73746 30.968L8.66394 33.4735C8.65563 33.751 8.82345 34.0035 9.0827 34.1036L13.8821 35.956C14.1401 36.0558 14.4329 35.9826 14.6135 35.7729L16.2384 33.8891C17.6979 34.0473 19.1722 34.0093 20.6219 33.7759L22.3596 35.5878C22.5498 35.786 22.8429 35.8445 23.0945 35.7345L27.8099 33.6714C28.064 33.5602 28.2206 33.3006 28.2002 33.0238L28.0157 30.5157C29.1774 29.6126 30.1977 28.5415 31.0429 27.3373L33.5485 27.4108C33.8259 27.4188 34.0785 27.251 34.1785 26.992L36.031 22.1926C36.1304 21.9347 36.0572 21.6422 35.8478 21.4612L33.9647 19.8364ZM33.1236 26.0884L30.7242 26.0177C30.4982 26.0107 30.285 26.121 30.16 26.3092C29.2931 27.6112 28.2059 28.7528 26.9477 29.6823C26.7671 29.816 26.6674 30.0327 26.684 30.2568L26.8605 32.6574L22.9884 34.3513L21.3261 32.6181C21.174 32.4596 20.9524 32.388 20.736 32.4276C19.1911 32.7102 17.612 32.7511 16.0546 32.5484C15.8362 32.52 15.6182 32.6031 15.4744 32.77L13.9234 34.5681L9.98639 33.049L10.0567 30.6493C10.0634 30.424 9.95346 30.2107 9.76582 30.0854C8.46351 29.2182 7.32199 28.1313 6.39241 26.8731C6.25879 26.6925 6.04206 26.5931 5.81797 26.6094L3.4173 26.7859L1.72341 22.9138L3.4563 21.2515C3.61517 21.0994 3.68678 20.8778 3.64714 20.6614C3.36424 19.1165 3.32364 17.5374 3.52631 15.98C3.55476 15.7616 3.47132 15.5436 3.30478 15.3998L1.50635 13.8481L3.02571 9.91116L5.42543 9.98181C5.65079 9.9882 5.86401 9.87823 5.98931 9.69027C6.85656 8.38828 7.94342 7.24709 9.20193 6.31719C9.38254 6.18389 9.48196 5.96683 9.46533 5.74307L9.28888 3.34208L13.161 1.64818L14.8232 3.3814C14.9754 3.53995 15.1972 3.61156 15.4133 3.57224C16.9586 3.28902 18.5383 3.2481 20.0961 3.45108C20.3144 3.47953 20.5324 3.3961 20.6763 3.22956L22.2276 1.43145L26.1642 2.95081L26.0936 5.3502C26.0869 5.57589 26.1968 5.7891 26.3848 5.91441C27.6868 6.78134 28.8283 7.86851 29.7579 9.12671C29.8915 9.30732 30.1082 9.40673 30.3323 9.39043L32.733 9.21397L34.4272 13.0861L32.694 14.7483C32.5354 14.9005 32.4635 15.122 32.5032 15.3384C32.7861 16.8833 32.827 18.4625 32.6243 20.0199C32.5959 20.2382 32.679 20.4559 32.8458 20.5997L34.6433 22.1514L33.1236 26.0884Z" fill="white"/>
<path d="M18.0747 10.234C15.7782 10.234 13.9165 12.0954 13.9165 14.3919C13.9165 16.6887 15.7782 18.5501 18.0747 18.5501C20.3711 18.5501 22.2329 16.6883 22.2329 14.3919C22.2303 12.0967 20.3702 10.2366 18.0747 10.234ZM18.0747 17.2407C16.5013 17.2407 15.2258 15.9653 15.2258 14.3919C15.2258 12.8185 16.5013 11.543 18.0747 11.543C19.6481 11.543 20.9235 12.8185 20.9235 14.3919C20.9216 15.9646 19.6474 17.2388 18.0747 17.2407Z" fill="white"/>
</g>
<defs>
<clipPath id="clip0_69_801">
<rect width="36" height="36" fill="white"/>
</clipPath>
</defs>
</svg>
