<svg width="36" height="36" viewBox="0 0 36 36" fill="none" xmlns="http://www.w3.org/2000/svg">
<path d="M18 5.99997C16.3455 5.99997 15 7.3454 15 8.99999C15 10.6546 16.3454 12 18 12C19.6546 12 21 10.6546 21 8.99999C21 7.3454 19.6545 5.99997 18 5.99997ZM18 10.5C17.1731 10.5 16.5 9.82687 16.5 8.99999C16.5 8.17312 17.1731 7.50002 18 7.50002C18.8269 7.50002 19.5 8.17312 19.5 8.99999C19.5 9.82687 18.8269 10.5 18 10.5Z" fill="#E9041E"/>
<path d="M20.25 13.5H14.25C13.8355 13.5 13.5 13.8355 13.5 14.25V17.25C13.5 17.6646 13.8355 18.0001 14.25 18.0001H15V29.2501C15 29.6646 15.3355 30.0001 15.7501 30.0001H20.2501C20.6646 30.0001 21.0001 29.6646 21.0001 29.2501V14.25C21 13.8355 20.6646 13.5 20.25 13.5ZM19.5 28.5H16.5V17.25C16.5 16.8354 16.1645 16.5 15.7499 16.5H14.9999V15H19.4999V28.5H19.5Z" fill="black"/>
<path d="M18 0C8.07497 0 0 8.07497 0 18C0 27.925 8.07497 36 18 36C27.925 36 36 27.925 36 18C36 8.07497 27.925 0 18 0ZM18 34.5C8.90184 34.5 1.49998 27.0982 1.49998 18C1.49998 8.90184 8.90184 1.49998 18 1.49998C27.0982 1.49998 34.5 8.90184 34.5 18C34.5 27.0982 27.0982 34.5 18 34.5Z" fill="black"/>
</svg>
