<svg width="36" height="36" viewBox="0 0 36 36" fill="none" xmlns="http://www.w3.org/2000/svg">
<g clip-path="url(#clip0_69_787)">
<path d="M13.5 15C9.3645 15 6 11.6355 6 7.5C6 3.3645 9.3645 0 13.5 0C17.6355 0 21 3.3645 21 7.5C21 11.6355 17.6355 15 13.5 15ZM13.5 1.5C10.191 1.5 7.5 4.191 7.5 7.5C7.5 10.809 10.191 13.5 13.5 13.5C16.809 13.5 19.5 10.809 19.5 7.5C19.5 4.191 16.809 1.5 13.5 1.5Z" fill="black"/>
<path d="M12.75 31.5H0.75C0.336 31.5 0 31.164 0 30.75V24.75C0 21.0285 3.0285 18 6.75 18H15.75C16.164 18 16.5 18.336 16.5 18.75C16.5 19.164 16.164 19.5 15.75 19.5H6.75C3.855 19.5 1.5 21.855 1.5 24.75V30H12.75C13.164 30 13.5 30.336 13.5 30.75C13.5 31.164 13.164 31.5 12.75 31.5Z" fill="black"/>
<path d="M25.5 30C23.433 30 21.75 28.317 21.75 26.25C21.75 24.183 23.433 22.5 25.5 22.5C27.567 22.5 29.25 24.183 29.25 26.25C29.25 28.317 27.567 30 25.5 30ZM25.5 24C24.2595 24 23.25 25.0095 23.25 26.25C23.25 27.4905 24.2595 28.5 25.5 28.5C26.7405 28.5 27.75 27.4905 27.75 26.25C27.75 25.0095 26.7405 24 25.5 24Z" fill="black"/>
<path d="M26.6954 36H24.3029C23.5289 36 22.8869 35.4195 22.8104 34.6485L22.6199 32.742C22.1654 32.5395 21.7319 32.2875 21.3224 31.9875L19.5704 32.778C18.8669 33.099 18.0404 32.8305 17.6549 32.16L16.4594 30.0885C16.0724 29.418 16.2554 28.572 16.8824 28.1205L18.4259 27.0105C18.3959 26.778 18.3749 26.52 18.3749 26.25C18.3749 25.98 18.3959 25.7205 18.4259 25.4895L16.8824 24.3795C16.2554 23.928 16.0724 23.082 16.4594 22.4115L17.6549 20.34C18.0419 19.6695 18.8639 19.404 19.5704 19.722L21.3224 20.5125C21.7319 20.2125 22.1654 19.9605 22.6199 19.758L22.8104 17.8515C22.8869 17.082 23.5289 16.5015 24.3029 16.5015H26.6954C27.4694 16.5015 28.1114 17.082 28.1879 17.853L28.3784 19.7595C28.8344 19.962 29.2679 20.2155 29.6759 20.514L31.4279 19.7235C32.1344 19.407 32.9579 19.6725 33.3434 20.3415L34.5389 22.413C34.9259 23.0835 34.7429 23.9295 34.1159 24.381L32.5724 25.491C32.6024 25.7235 32.6234 25.9815 32.6234 26.2515C32.6234 26.5215 32.6024 26.781 32.5724 27.012L34.1159 28.122C34.7429 28.5735 34.9259 29.4195 34.5389 30.09L33.3449 32.16C32.9579 32.829 32.1374 33.0975 31.4294 32.778L29.6774 31.9875C29.2679 32.2875 28.8344 32.5395 28.3799 32.742L28.1879 34.65C28.1114 35.4195 27.4694 36 26.6954 36ZM21.4274 30.3675C21.5999 30.3675 21.7709 30.4275 21.9089 30.543C22.4174 30.969 22.9799 31.2945 23.5784 31.5135C23.8484 31.6125 24.0389 31.857 24.0674 32.1435L24.3044 34.5H26.6969L26.9324 32.1435C26.9609 31.857 27.1514 31.6125 27.4214 31.5135C28.0199 31.2945 28.5824 30.9675 29.0909 30.543C29.3129 30.3585 29.6189 30.3165 29.8799 30.435L32.0459 31.413L33.2414 29.3415L31.3244 27.9645C31.0904 27.7965 30.9749 27.5085 31.0229 27.225C31.0784 26.9085 31.1234 26.586 31.1234 26.253C31.1234 25.92 31.0784 25.5975 31.0229 25.281C30.9734 24.9975 31.0904 24.711 31.3244 24.5415L33.2414 23.1645L32.0459 21.093L29.8799 22.0695C29.6174 22.188 29.3114 22.146 29.0894 21.9615C28.5824 21.5355 28.0214 21.21 27.4199 20.991C27.1499 20.892 26.9594 20.6475 26.9309 20.361L26.6954 18H24.3029L24.0674 20.3565C24.0389 20.643 23.8484 20.8875 23.5784 20.9865C22.9799 21.2055 22.4174 21.5325 21.9089 21.957C21.6884 22.1415 21.3824 22.185 21.1199 22.065L18.9539 21.087L17.7584 23.1585L19.6754 24.5355C19.9094 24.7035 20.0249 24.9915 19.9769 25.275C19.9214 25.5915 19.8764 25.914 19.8764 26.247C19.8764 26.58 19.9214 26.9025 19.9769 27.219C20.0264 27.5025 19.9094 27.789 19.6754 27.9585L17.7584 29.3355L18.9539 31.407L21.1199 30.4305C21.2189 30.3885 21.3224 30.3675 21.4274 30.3675Z" fill="#E9041E"/>
</g>
<defs>
<clipPath id="clip0_69_787">
<rect width="36" height="36" fill="white"/>
</clipPath>
</defs>
</svg>
