<svg width="36" height="36" viewBox="0 0 36 36" fill="none" xmlns="http://www.w3.org/2000/svg">
<path d="M34.3126 3.375H27.6357L25.7232 1.305C25.671 1.24818 25.6075 1.20284 25.5368 1.17185C25.4661 1.14086 25.3898 1.12491 25.3126 1.125H8.4376C8.28842 1.125 8.14534 1.18426 8.03985 1.28975C7.93436 1.39524 7.8751 1.53832 7.8751 1.6875V9.98438C5.91978 10.5853 4.20867 11.7973 2.9931 13.4425C1.77754 15.0878 1.12158 17.0794 1.12158 19.125C1.12158 21.1706 1.77754 23.1622 2.9931 24.8075C4.20867 26.4527 5.91978 27.6647 7.8751 28.2656V32.0625C7.8751 32.2117 7.93436 32.3548 8.03985 32.4602C8.14534 32.5657 8.28842 32.625 8.4376 32.625H13.5001V34.3125C13.5001 34.4617 13.5594 34.6048 13.6649 34.7102C13.7703 34.8157 13.9134 34.875 14.0626 34.875H34.3126C34.4618 34.875 34.6049 34.8157 34.7104 34.7102C34.8158 34.6048 34.8751 34.4617 34.8751 34.3125V3.9375C34.8751 3.78832 34.8158 3.64524 34.7104 3.53975C34.6049 3.43426 34.4618 3.375 34.3126 3.375ZM25.8751 3.1275L30.7801 8.4375H25.8751V3.1275ZM2.2501 19.125C2.2501 17.4562 2.74495 15.8249 3.67208 14.4374C4.5992 13.0498 5.91696 11.9684 7.45871 11.3298C9.00046 10.6912 10.697 10.5241 12.3337 10.8496C13.9704 11.1752 15.4738 11.9788 16.6538 13.1588C17.8338 14.3388 18.6374 15.8422 18.963 17.4789C19.2885 19.1156 19.1215 20.8121 18.4828 22.3539C17.8442 23.8956 16.7628 25.2134 15.3752 26.1405C13.9877 27.0676 12.3564 27.5625 10.6876 27.5625C8.45066 27.5598 6.3061 26.67 4.72435 25.0883C3.14259 23.5065 2.25278 21.3619 2.2501 19.125ZM9.0001 31.5V28.53C9.557 28.6311 10.1216 28.6838 10.6876 28.6875C12.2452 28.6886 13.7791 28.3061 15.1539 27.5737L19.0857 31.5H9.0001ZM14.6251 33.75V32.625H20.2107L21.3414 33.75H14.6251ZM24.5364 32.9737C24.2172 33.2823 23.7906 33.4548 23.3467 33.4548C22.9027 33.4548 22.4762 33.2823 22.157 32.9737L16.1439 26.9662C17.0733 26.3181 17.8807 25.5107 18.5289 24.5813L24.5364 30.5944C24.6948 30.7493 24.8208 30.9344 24.9067 31.1387C24.9927 31.343 25.037 31.5624 25.037 31.7841C25.037 32.0057 24.9927 32.2251 24.9067 32.4294C24.8208 32.6337 24.6948 32.8188 24.5364 32.9737ZM19.1364 23.5912C19.9089 22.1349 20.2914 20.5033 20.2466 18.8553C20.2018 17.2073 19.7313 15.599 18.8807 14.1867C18.0302 12.7744 16.8286 11.6063 15.3929 10.796C13.9572 9.9857 12.3362 9.56075 10.6876 9.5625C10.1216 9.5662 9.557 9.6189 9.0001 9.72V2.25H24.7501V9C24.7501 9.07387 24.7647 9.14701 24.7929 9.21526C24.8212 9.28351 24.8626 9.34552 24.9149 9.39775C24.9671 9.44998 25.0291 9.49142 25.0973 9.51968C25.1656 9.54795 25.2387 9.5625 25.3126 9.5625H31.5001V31.5H26.1339C26.0715 30.8569 25.7894 30.255 25.3351 29.7956L19.1364 23.5912ZM33.7501 33.75H25.352C25.6598 33.4333 25.8874 33.0476 26.0157 32.625H32.0626C32.2118 32.625 32.3549 32.5657 32.4604 32.4602C32.5658 32.3548 32.6251 32.2117 32.6251 32.0625V9C32.6259 8.85764 32.5715 8.72052 32.4732 8.6175L28.6764 4.5H33.7501V33.75Z" fill="white"/>
<path d="M11.25 3.9375H14.625V5.0625H11.25V3.9375Z" fill="white"/>
<path d="M16.3125 3.9375H23.0625V5.0625H16.3125V3.9375Z" fill="white"/>
<path d="M11.25 6.75H23.0625V7.875H11.25V6.75Z" fill="white"/>
<path d="M20.25 11.25H30.375V12.375H20.25V11.25Z" fill="white"/>
<path d="M20.25 14.0625H30.375V15.1875H20.25V14.0625Z" fill="white"/>
<path d="M21.375 16.875H30.375V18H21.375V16.875Z" fill="white"/>
<path d="M21.375 19.6875H23.625V20.8125H21.375V19.6875Z" fill="white"/>
<path d="M24.75 19.6875H30.375V20.8125H24.75V19.6875Z" fill="white"/>
</svg>
