<svg width="36" height="36" viewBox="0 0 36 36" fill="none" xmlns="http://www.w3.org/2000/svg">
<g clip-path="url(#clip0_68_526)">
<path d="M28.5 27C26.019 27 24 24.981 24 22.5C24 20.019 26.019 18 28.5 18C30.981 18 33 20.019 33 22.5C33 24.981 30.981 27 28.5 27ZM28.5 19.5C26.8455 19.5 25.5 20.8455 25.5 22.5C25.5 24.1545 26.8455 25.5 28.5 25.5C30.1545 25.5 31.5 24.1545 31.5 22.5C31.5 20.8455 30.1545 19.5 28.5 19.5Z" fill="white"/>
<path d="M35.25 36C34.836 36 34.5 35.664 34.5 35.25V32.5845C34.5 31.158 33.426 30 32.106 30H24.8925C23.574 30 22.5 31.158 22.5 32.5845V35.25C22.5 35.664 22.164 36 21.75 36C21.336 36 21 35.664 21 35.25V32.5845C21 30.333 22.746 28.5 24.894 28.5H32.1075C34.254 28.5 36 30.333 36 32.5845V35.25C36 35.664 35.664 36 35.25 36Z" fill="white"/>
<path d="M20.25 24C20.133 24 20.0175 23.973 19.908 23.9175L13.929 20.862C6.5475 21.906 0 16.8435 0 10.5C0 4.7115 5.3835 0 12 0C18.6165 0 24 4.7115 24 10.5C24 13.6275 22.452 16.524 19.7325 18.5205L20.973 23.052C21.051 23.337 20.952 23.6445 20.7225 23.832C20.5875 23.943 20.418 24 20.25 24ZM14.055 19.335C14.1735 19.335 14.289 19.3635 14.397 19.4175L19.0785 21.81L18.147 18.408C18.0615 18.0975 18.1845 17.766 18.4545 17.586C21.0255 15.867 22.5 13.284 22.5 10.5C22.5 5.5365 17.7885 1.5 12 1.5C6.2115 1.5 1.5 5.5365 1.5 10.5C1.5 16.008 7.377 20.394 13.9365 19.344C13.9755 19.338 14.016 19.335 14.055 19.335Z" fill="white"/>
</g>
<defs>
<clipPath id="clip0_68_526">
<rect width="36" height="36" fill="white"/>
</clipPath>
</defs>
</svg>
