<svg width="35" height="35" viewBox="0 0 35 35" fill="none" xmlns="http://www.w3.org/2000/svg">
<g clip-path="url(#clip0_68_537)">
<path d="M31.056 3.94137C25.8312 -1.29789 17.3484 -1.30971 12.1092 3.91508C7.0538 8.95642 6.83992 17.0763 11.6227 22.3769L10.5996 23.4C9.77297 22.5733 8.43266 22.5731 7.60595 23.3998C7.60586 23.3998 7.60577 23.3999 7.60568 23.4L0.620133 30.3856C-0.206579 31.2122 -0.206755 32.5525 0.619868 33.3792C0.619956 33.3793 0.620045 33.3794 0.620133 33.3795L1.61787 34.3772C2.44449 35.2036 3.78444 35.2036 4.61107 34.3772L11.5966 27.3917C12.4233 26.565 12.4235 25.2247 11.5969 24.398C11.5968 24.3979 11.5967 24.3978 11.5966 24.3978L12.6198 23.3746C18.1094 28.3357 26.5813 27.9071 31.5424 22.4175C36.3344 17.115 36.1203 8.98446 31.056 3.94137ZM10.5996 26.3932L3.61404 33.3788C3.3385 33.6542 2.89185 33.6542 2.61631 33.3788L1.61857 32.3803C1.34356 32.1049 1.34356 31.6588 1.61857 31.3833L8.60412 24.3978C8.88319 24.1309 9.32279 24.1309 9.60185 24.3978L10.5996 25.3962C10.8746 25.6717 10.8746 26.1178 10.5996 26.3932ZM30.0589 21.9034C25.3744 26.5878 17.7793 26.5877 13.0949 21.9032C8.41052 17.2186 8.41061 9.62348 13.0952 4.9391C17.7796 0.254811 25.3745 0.254811 30.0589 4.9391C34.7358 9.62683 34.7358 17.2157 30.0589 21.9034Z" fill="white"/>
<path d="M29.0605 5.93622L28.0627 6.93395C31.6389 10.5188 31.6389 16.3218 28.0627 19.9066L29.0605 20.9044C33.1879 16.7686 33.1879 10.072 29.0605 5.93622Z" fill="white"/>
</g>
<defs>
<clipPath id="clip0_68_537">
<rect width="35" height="35" fill="white"/>
</clipPath>
</defs>
</svg>
