<svg width="37" height="37" viewBox="0 0 37 37" fill="none" xmlns="http://www.w3.org/2000/svg">
<path d="M26.9069 0H5.46812C2.45298 0 0 2.45298 0 5.46812V17.9459C0 20.9611 2.45298 23.4141 5.46812 23.4141H5.7053V26.742C5.7053 27.0343 5.88141 27.2978 6.15139 27.4096C6.24079 27.4466 6.33473 27.4646 6.42781 27.4646C6.61592 27.4646 6.8007 27.3912 6.93895 27.253L10.7779 23.4141H13.4803C13.8793 23.4141 14.2029 23.0905 14.2029 22.6914C14.2029 22.2924 13.8793 21.9688 13.4802 21.9688H10.4785C10.2869 21.9688 10.1031 22.0449 9.96753 22.1804L7.15068 24.9973V22.6914C7.15068 22.2924 6.82708 21.9688 6.42803 21.9688H5.46812C3.24993 21.9688 1.44531 20.1641 1.44531 17.9459V5.46812C1.44531 3.24993 3.24993 1.44531 5.46812 1.44531H26.9069C29.1251 1.44531 30.9297 3.24993 30.9297 5.46812V11.707C30.9297 12.1061 31.2533 12.4297 31.6523 12.4297C32.0514 12.4297 32.375 12.1061 32.375 11.707V5.46812C32.375 2.45298 29.922 0 26.9069 0Z" fill="white"/>
<path d="M18.7107 17.2064C18.3116 17.2064 17.988 17.53 17.988 17.9291V17.9369C17.988 18.3359 18.3116 18.6595 18.7107 18.6595C19.1097 18.6595 19.4333 18.3359 19.4333 17.9369V17.9291C19.4333 17.53 19.1097 17.2064 18.7107 17.2064Z" fill="white"/>
<path d="M15.0492 29.3465C15.0492 30.5449 15.9717 31.5312 17.1437 31.6343C17.0356 31.9006 16.9755 32.1912 16.9755 32.4958L16.9755 32.5262C16.9755 33.7929 18.006 34.8235 19.2727 34.8235L29.3515 34.8235C29.4417 34.8235 29.5313 34.8066 29.6153 34.7736L30.7982 34.3097C30.8152 34.6937 31.131 35.0001 31.5193 35.0001L35.2771 35.0001C35.6762 35.0001 35.9998 34.6765 35.9998 34.2775L35.9998 21.5587C35.9998 21.1597 35.6762 20.8361 35.2771 20.8361L31.5193 20.8361C31.3005 20.8361 31.1048 20.9338 30.9722 21.0875L24.6166 13.4058C24.4806 13.2415 24.279 13.1456 24.0657 13.1438C24.0638 13.1438 24.0618 13.1438 24.0598 13.1438C23.8487 13.1438 23.648 13.2361 23.5107 13.3967L23.2352 13.7186C22.0921 15.0546 21.8399 16.9446 22.5928 18.5335L23.6001 20.6594L19.2727 20.6594C18.006 20.6594 16.9755 21.69 16.9755 22.9568L16.9755 22.9871C16.9755 23.2917 17.0356 23.5824 17.1437 23.8486C15.9717 23.9517 15.0492 24.9381 15.0492 26.1365L15.0492 26.1668C15.0492 26.7759 15.2879 27.3299 15.6761 27.7415C15.2879 28.153 15.0492 28.7071 15.0492 29.3161L15.0492 29.3465ZM32.2419 22.9656C32.2476 22.9136 32.2477 22.8611 32.2419 22.8089L32.2419 22.2814L34.5544 22.2814L34.5544 33.5548L32.2419 33.5548L32.2419 22.9656ZM16.4945 29.3161C16.4945 28.8463 16.8768 28.4641 17.3466 28.4641L22.173 28.4641C22.5721 28.4641 22.8957 28.1405 22.8957 27.7415C22.8957 27.3424 22.5721 27.0188 22.173 27.0188L17.3466 27.0188C16.8768 27.0188 16.4945 26.6366 16.4945 26.1668L16.4945 26.1365C16.4945 25.6667 16.8768 25.2844 17.3466 25.2844L22.173 25.2844C22.5721 25.2844 22.8957 24.9608 22.8957 24.5618C22.8957 24.1627 22.5721 23.8391 22.173 23.8391L19.2727 23.8391C18.8029 23.8391 18.4208 23.4569 18.4208 22.9871L18.4208 22.9568C18.4208 22.487 18.8029 22.1048 19.2727 22.1048L24.7422 22.1048C24.9899 22.1048 25.2204 21.9779 25.3529 21.7685C25.4853 21.5592 25.5014 21.2966 25.3953 21.0727L23.899 17.9146C23.4536 16.9746 23.5282 15.8789 24.0715 15.0143L30.7966 23.1426L30.7966 32.7579L29.2148 33.3782L19.2727 33.3782C18.8029 33.3782 18.4208 32.996 18.4208 32.5262L18.4208 32.4958C18.4208 32.026 18.8029 31.6438 19.2727 31.6438L22.173 31.6438C22.5721 31.6438 22.8957 31.3202 22.8957 30.9212C22.8957 30.5221 22.5721 30.1985 22.173 30.1985L19.2727 30.1985L17.3466 30.1985C16.8768 30.1985 16.4945 29.8163 16.4945 29.3465L16.4945 29.3161Z" fill="white"/>
<path d="M26.8828 10.9844H5.49219C5.09314 10.9844 4.76953 11.308 4.76953 11.707C4.76953 12.1061 5.09314 12.4297 5.49219 12.4297H26.8828C27.2819 12.4297 27.6055 12.1061 27.6055 11.707C27.6055 11.308 27.2819 10.9844 26.8828 10.9844Z" fill="white"/>
<path d="M23.0157 6.35938H5.49219C5.09314 6.35938 4.76953 6.68298 4.76953 7.08203C4.76953 7.48108 5.09314 7.80469 5.49219 7.80469H23.0157C23.4148 7.80469 23.7384 7.48108 23.7384 7.08203C23.7384 6.68298 23.4148 6.35938 23.0157 6.35938Z" fill="white"/>
<path d="M27.3937 6.57111C27.2593 6.43663 27.0729 6.35938 26.8828 6.35938C26.6928 6.35938 26.5063 6.43663 26.3719 6.57111C26.2375 6.7056 26.1602 6.89197 26.1602 7.08203C26.1602 7.27281 26.2374 7.45854 26.3719 7.59288C26.5063 7.72729 26.6928 7.80469 26.8828 7.80469C27.0729 7.80469 27.2593 7.72736 27.3937 7.59288C27.5281 7.45854 27.6055 7.27209 27.6055 7.08203C27.6055 6.89197 27.5281 6.70553 27.3937 6.57111Z" fill="white"/>
<path d="M13.4802 15.6094H5.49219C5.09314 15.6094 4.76953 15.933 4.76953 16.332C4.76953 16.7311 5.09314 17.0547 5.49219 17.0547H13.4802C13.8793 17.0547 14.2029 16.7311 14.2029 16.332C14.2029 15.933 13.8793 15.6094 13.4802 15.6094Z" fill="white"/>
</svg>
