<svg width="36" height="36" viewBox="0 0 36 36" fill="none" xmlns="http://www.w3.org/2000/svg">
<path d="M17.9999 5.86956C18.4303 5.86956 18.7825 5.51739 18.7825 5.08695V4.69565C18.7825 4.26521 18.4303 3.91304 17.9999 3.91304C17.5695 3.91304 17.2173 4.26521 17.2173 4.69565V5.08695C17.2173 5.51739 17.5695 5.86956 17.9999 5.86956Z" fill="#252525"/>
<path d="M17.9999 30.1304C17.5695 30.1304 17.2173 30.4826 17.2173 30.913V31.3043C17.2173 31.7348 17.5695 32.087 17.9999 32.087C18.4303 32.087 18.7825 31.7348 18.7825 31.3043V30.913C18.7825 30.4826 18.4303 30.1304 17.9999 30.1304Z" fill="#252525"/>
<path d="M5.087 17.2174H4.69569C4.26526 17.2174 3.91309 17.5696 3.91309 18C3.91309 18.4304 4.26526 18.7826 4.69569 18.7826H5.087C5.51743 18.7826 5.86961 18.4304 5.86961 18C5.86961 17.5696 5.51743 17.2174 5.087 17.2174Z" fill="#252525"/>
<path d="M31.3043 17.2174H30.913C30.4825 17.2174 30.1304 17.5696 30.1304 18C30.1304 18.4304 30.4825 18.7826 30.913 18.7826H31.3043C31.7347 18.7826 32.0869 18.4304 32.0869 18C32.0869 17.5696 31.7347 17.2174 31.3043 17.2174Z" fill="#252525"/>
<path d="M9.15661 8.06088C8.84356 7.74783 8.374 7.74783 8.06095 8.06088C7.74791 8.37392 7.74791 8.84349 8.06095 9.15653L8.33487 9.43044C8.49139 9.58697 8.68704 9.66523 8.88269 9.66523C9.07835 9.66523 9.274 9.58697 9.43052 9.43044C9.74356 9.1174 9.74356 8.64783 9.43052 8.33479L9.15661 8.06088Z" fill="#252525"/>
<path d="M8.33487 26.5696L8.06095 26.8435C7.74791 27.1565 7.74791 27.6261 8.06095 27.9391C8.21748 28.0956 8.41313 28.1739 8.60878 28.1739C8.80443 28.1739 9.00008 28.0956 9.15661 27.9391L9.43052 27.6652C9.74356 27.3522 9.74356 26.8826 9.43052 26.5696C9.11748 26.2565 8.64791 26.2565 8.33487 26.5696Z" fill="#252525"/>
<path d="M26.8434 8.06088L26.5695 8.33479C26.2565 8.64783 26.2565 9.1174 26.5695 9.43044C26.726 9.58697 26.9217 9.66523 27.1173 9.66523C27.313 9.66523 27.5086 9.58697 27.6652 9.43044L27.9391 9.15653C28.2521 8.84349 28.2521 8.37392 27.9391 8.06088C27.626 7.74783 27.1565 7.74783 26.8434 8.06088Z" fill="#252525"/>
<path d="M18.7825 17.687V10.5652C18.7825 10.1348 18.4303 9.78261 17.9999 9.78261C17.5695 9.78261 17.2173 10.1348 17.2173 10.5652V18C17.2173 18.1957 17.2955 18.3913 17.4521 18.5478L26.0216 27.1174C26.1782 27.2739 26.3738 27.3522 26.5695 27.3522C26.7651 27.3522 26.9608 27.2739 27.1173 27.1174C27.4303 26.8043 27.4303 26.3348 27.1173 26.0217L18.7825 17.687Z" fill="#E9041E"/>
<path d="M18 0C8.06087 0 0 8.06087 0 18C0 27.9391 8.06087 36 18 36C27.9391 36 36 27.9391 36 18C36 8.06087 27.9391 0 18 0ZM18 34.4348C8.92174 34.4348 1.56522 27.0783 1.56522 18C1.56522 8.92174 8.92174 1.56522 18 1.56522C27.0783 1.56522 34.4348 8.92174 34.4348 18C34.4348 27.0783 27.0783 34.4348 18 34.4348Z" fill="#252525"/>
</svg>
