<svg width="36" height="36" viewBox="0 0 36 36" fill="none" xmlns="http://www.w3.org/2000/svg">
<path d="M31.1946 6.6C31.1961 6.44168 31.1348 6.2892 31.0242 6.1758L25.0242 0.1758C24.9114 0.0645 24.7585 0.00315 24.6 0.0054V0H6.60005C5.60592 0 4.80005 0.805875 4.80005 1.8V34.2C4.80005 35.1941 5.60592 36 6.60005 36H29.4C30.3942 36 31.2 35.1941 31.2 34.2V6.6H31.1946ZM25.2 2.0484L29.1516 6H25.8C25.4687 6 25.2 5.73135 25.2 5.4V2.0484ZM30 34.2C30 34.5314 29.7314 34.8 29.4 34.8H6.60005C6.2687 34.8 6.00005 34.5314 6.00005 34.2V1.8C6.00005 1.46865 6.2687 1.2 6.60005 1.2H24V5.4C24 6.39413 24.8059 7.2 25.8 7.2H30V34.2Z" fill="#252525"/>
<path d="M10.8 16.2C9.80587 16.2 9 17.0058 9 18C9 18.9941 9.80587 19.8 10.8 19.8C11.7941 19.8 12.6 18.9941 12.6 18C12.6 17.0058 11.7941 16.2 10.8 16.2ZM10.8 18.6C10.4686 18.6 10.2 18.3313 10.2 18C10.2 17.6686 10.4686 17.4 10.8 17.4C11.1313 17.4 11.4 17.6686 11.4 18C11.4 18.3313 11.1313 18.6 10.8 18.6Z" fill="#E9041E"/>
<path d="M27 17.4H15V18.6H27V17.4Z" fill="#252525"/>
<path d="M10.8 10.2C9.80587 10.2 9 11.0058 9 12C9 12.9941 9.80587 13.7999 10.8 13.7999C11.7941 13.7999 12.6 12.9941 12.6 12C12.6 11.0058 11.7941 10.2 10.8 10.2ZM10.8 12.6C10.4686 12.6 10.2 12.3313 10.2 12C10.2 11.6686 10.4686 11.4 10.8 11.4C11.1313 11.4 11.4 11.6686 11.4 12C11.4 12.3313 11.1313 12.6 10.8 12.6Z" fill="#E9041E"/>
<path d="M27 11.4001H15V12.6001H27V11.4001Z" fill="#252525"/>
<path d="M10.8 22.2C9.80587 22.2 9 23.0059 9 24C9 24.9941 9.80587 25.8 10.8 25.8C11.7941 25.8 12.6 24.9941 12.6 24C12.6 23.0059 11.7941 22.2 10.8 22.2ZM10.8 24.6C10.4686 24.6 10.2 24.3313 10.2 24C10.2 23.6686 10.4686 23.4 10.8 23.4C11.1313 23.4 11.4 23.6686 11.4 24C11.4 24.3313 11.1313 24.6 10.8 24.6Z" fill="#E9041E"/>
<path d="M27 23.4H15V24.6H27V23.4Z" fill="#252525"/>
<path d="M10.8 28.2001C9.80587 28.2001 9 29.0059 9 30.0001C9 30.9942 9.80587 31.8 10.8 31.8C11.7941 31.8 12.6 30.9942 12.6 30.0001C12.6 29.0059 11.7941 28.2001 10.8 28.2001ZM10.8 30.6001C10.4686 30.6001 10.2 30.3314 10.2 30.0001C10.2 29.6687 10.4686 29.4001 10.8 29.4001C11.1313 29.4001 11.4 29.6687 11.4 30.0001C11.4 30.3314 11.1313 30.6001 10.8 30.6001Z" fill="#E9041E"/>
<path d="M27 29.4H15V30.6H27V29.4Z" fill="#252525"/>
</svg>
