<svg width="36" height="36" viewBox="0 0 36 36" fill="none" xmlns="http://www.w3.org/2000/svg">
<path d="M29.1101 10.459C29.4984 10.459 29.8132 10.1442 29.8132 9.75586V2.10938C29.8132 0.946266 28.867 0 27.7039 0H2.11011C0.946998 0 0.000732422 0.946266 0.000732422 2.10938V33.8906C0.000732422 35.0537 0.946998 36 2.11011 36H27.7039C28.867 36 29.8132 35.0537 29.8132 33.8906V28.7106C29.8132 28.3222 29.4984 28.0074 29.1101 28.0074C28.7218 28.0074 28.407 28.3222 28.407 28.7106V33.8906C28.407 34.2783 28.0916 34.5938 27.7039 34.5938H2.11011C1.7224 34.5938 1.40698 34.2783 1.40698 33.8906V2.10938C1.40698 1.72167 1.7224 1.40625 2.11011 1.40625H27.7039C28.0916 1.40625 28.407 1.72167 28.407 2.10938V9.75586C28.407 10.1442 28.7218 10.459 29.1101 10.459Z" fill="#252525"/>
<path d="M14.9067 3.79688C11.3399 3.79688 8.43799 6.69874 8.43799 10.2656C8.43799 12.116 9.21916 13.7872 10.4688 14.9674C10.4922 14.9924 10.5171 15.0161 10.5443 15.0377C11.6954 16.0909 13.2273 16.7343 14.9067 16.7343C16.5861 16.7343 18.118 16.0908 19.2691 15.0377C19.2963 15.0161 19.3212 14.9923 19.3446 14.9674C20.5943 13.7872 21.3755 12.116 21.3755 10.2656C21.3755 6.69874 18.4736 3.79688 14.9067 3.79688ZM14.9067 15.3281C13.7586 15.3281 12.699 14.9434 11.8488 14.2968C12.4668 13.201 13.62 12.5156 14.9067 12.5156C16.1935 12.5156 17.3467 13.201 17.9647 14.2968C17.1144 14.9434 16.0549 15.3281 14.9067 15.3281ZM13.7817 9.98438V9.52734C13.7817 8.90705 14.2864 8.40234 14.9067 8.40234C15.527 8.40234 16.0317 8.90705 16.0317 9.52734V9.98438C16.0317 10.6047 15.527 11.1094 14.9067 11.1094C14.2864 11.1094 13.7817 10.6047 13.7817 9.98438ZM18.9806 13.2668C18.4621 12.4977 17.7434 11.8995 16.909 11.5303C17.2402 11.1023 17.438 10.5661 17.438 9.98438V9.52734C17.438 8.13157 16.3025 6.99609 14.9067 6.99609C13.511 6.99609 12.3755 8.13157 12.3755 9.52734V9.98438C12.3755 10.5661 12.5733 11.1023 12.9045 11.5303C12.0701 11.8995 11.3514 12.4977 10.8328 13.2668C10.212 12.4263 9.84424 11.3883 9.84424 10.2656C9.84424 7.47415 12.1153 5.20312 14.9067 5.20312C17.6982 5.20312 19.9692 7.47415 19.9692 10.2656C19.9692 11.3883 19.6014 12.4263 18.9806 13.2668Z" fill="#252525"/>
<path d="M18.7036 30.7969H14.9067C14.5185 30.7969 14.2036 31.1117 14.2036 31.5C14.2036 31.8883 14.5185 32.2031 14.9067 32.2031H18.7036C19.0919 32.2031 19.4067 31.8883 19.4067 31.5C19.4067 31.1117 19.0919 30.7969 18.7036 30.7969Z" fill="#252525"/>
<path d="M18.7036 26.8594H8.71924C8.33097 26.8594 8.01611 27.1742 8.01611 27.5625C8.01611 27.9508 8.33097 28.2656 8.71924 28.2656H18.7036C19.0919 28.2656 19.4067 27.9508 19.4067 27.5625C19.4067 27.1742 19.0919 26.8594 18.7036 26.8594Z" fill="#252525"/>
<path d="M18.7036 22.9219H8.71924C8.33097 22.9219 8.01611 23.2367 8.01611 23.625C8.01611 24.0133 8.33097 24.3281 8.71924 24.3281H18.7036C19.0919 24.3281 19.4067 24.0133 19.4067 23.625C19.4067 23.2367 19.0919 22.9219 18.7036 22.9219Z" fill="#252525"/>
<path d="M6.21308 19.1904C6.08236 19.0596 5.90096 18.9844 5.71533 18.9844C5.53034 18.9844 5.34893 19.0596 5.21822 19.1904C5.08744 19.3212 5.01221 19.5026 5.01221 19.6875C5.01221 19.8724 5.08737 20.0538 5.21822 20.1846C5.34971 20.3154 5.53034 20.3906 5.71533 20.3906C5.90096 20.3906 6.08166 20.3154 6.21308 20.1846C6.34386 20.0538 6.41916 19.8724 6.41916 19.6875C6.41916 19.5026 6.34393 19.3212 6.21308 19.1904Z" fill="#252525"/>
<path d="M6.21308 23.1279C6.08166 22.9971 5.90096 22.9219 5.71533 22.9219C5.53034 22.9219 5.34971 22.9971 5.21822 23.1279C5.08744 23.2587 5.01221 23.4401 5.01221 23.625C5.01221 23.8099 5.08737 23.9913 5.21822 24.1221C5.34971 24.2529 5.53034 24.3281 5.71533 24.3281C5.90096 24.3281 6.08166 24.2529 6.21308 24.1221C6.34386 23.9913 6.41916 23.8099 6.41916 23.625C6.41916 23.4401 6.34393 23.2587 6.21308 23.1279Z" fill="#252525"/>
<path d="M6.21308 27.0654C6.08166 26.9346 5.90096 26.8594 5.71533 26.8594C5.53034 26.8594 5.34971 26.9346 5.21822 27.0654C5.08744 27.1962 5.01221 27.3776 5.01221 27.5625C5.01221 27.7474 5.08737 27.9288 5.21822 28.0596C5.34893 28.1904 5.53034 28.2656 5.71533 28.2656C5.90096 28.2656 6.08236 28.1904 6.21308 28.0596C6.34386 27.9288 6.41916 27.7474 6.41916 27.5625C6.41916 27.3776 6.34393 27.1962 6.21308 27.0654Z" fill="#252525"/>
<path d="M18.7036 18.9844H8.71924C8.33097 18.9844 8.01611 19.2992 8.01611 19.6875C8.01611 20.0758 8.33097 20.3906 8.71924 20.3906H18.7036C19.0919 20.3906 19.4067 20.0758 19.4067 19.6875C19.4067 19.2992 19.0919 18.9844 18.7036 18.9844Z" fill="#252525"/>
<path d="M34.5236 9.16312C33.8406 8.76874 33.0448 8.66397 32.2827 8.86809C31.5208 9.07228 30.8839 9.56095 30.4896 10.244L21.6413 25.5696C21.5929 25.6536 21.5622 25.7467 21.5515 25.8431L20.9287 31.422C20.8977 31.6996 21.034 31.9693 21.2759 32.109C21.3851 32.172 21.5063 32.2032 21.6274 32.2032C21.7744 32.2032 21.921 32.1571 22.0444 32.0662L26.5643 28.7374C26.6425 28.6798 26.7079 28.6068 26.7563 28.5228L35.6045 13.1972C36.4187 11.787 35.9338 9.97734 34.5236 9.16312ZM22.5045 29.9808L22.8298 27.0676L24.8648 28.2426L22.5045 29.9808ZM25.89 27.2107L23.2108 25.6638L30.3113 13.3654L32.9906 14.9123L25.89 27.2107ZM34.3867 12.494L33.6936 13.6945L31.0144 12.1476L31.7074 10.9472C31.914 10.5893 32.2476 10.3334 32.6467 10.2265C33.0459 10.1194 33.4627 10.1744 33.8205 10.381C34.1783 10.5876 34.4342 10.9211 34.5412 11.3202C34.6481 11.7193 34.5933 12.1362 34.3867 12.494Z" fill="#E9041E"/>
</svg>
