<svg width="11" height="11" viewBox="0 0 11 11" fill="none" xmlns="http://www.w3.org/2000/svg">
<path d="M10.8344 9.47479C10.8238 9.46875 9.83684 8.90873 9.13608 8.13445C9.63173 7.34708 9.89256 6.44331 9.89256 5.50488C9.89256 4.18367 9.37803 2.94152 8.44379 2.00728C7.50956 1.07313 6.26741 0.558594 4.94628 0.558594C3.62507 0.558594 2.38292 1.07313 1.44877 2.00728C0.514535 2.94152 0 4.18367 0 5.50488C0 6.826 0.514535 8.06815 1.44877 9.00239C2.38292 9.93662 3.62507 10.4511 4.94628 10.4511C5.78955 10.4511 6.61535 10.2369 7.34716 9.83012C8.78939 10.6319 10.6831 10.0939 10.7662 10.0696C10.8917 10.033 10.983 9.92471 10.9978 9.79488C11.0128 9.66496 10.9484 9.53891 10.8344 9.47479ZM7.52743 9.18072C7.42261 9.11224 7.28766 9.11023 7.18074 9.17544C6.50952 9.58498 5.73684 9.80151 4.94628 9.80151C2.57712 9.80151 0.649568 7.87404 0.649568 5.50488C0.649568 3.13563 2.57712 1.20816 4.94628 1.20816C7.31544 1.20816 9.24291 3.13563 9.24291 5.50488C9.24291 6.39396 8.9736 7.24721 8.46393 7.97231C8.3806 8.09089 8.38589 8.25043 8.47703 8.36314C8.88028 8.8624 9.4006 9.28773 9.81493 9.58532C9.16856 9.65582 8.2391 9.64524 7.52743 9.18072Z" fill="#979797"/>
</svg>
