<svg width="26" height="33" viewBox="0 0 26 33" fill="none" xmlns="http://www.w3.org/2000/svg">
<rect x="0.5" y="0.5" width="25" height="32" rx="12.5" fill="white" stroke="#999999"/>
<circle cx="9.10526" cy="24.8947" r="1.10526" transform="rotate(-90 9.10526 24.8947)" fill="#EDEDED"/>
<circle cx="12.7896" cy="21.9474" r="1.10526" transform="rotate(-90 12.7896 21.9474)" fill="#EDEDED"/>
<circle cx="12.7896" cy="24.8947" r="1.10526" transform="rotate(-90 12.7896 24.8947)" fill="#EDEDED"/>
<circle cx="16.4737" cy="24.8947" r="1.10526" transform="rotate(-90 16.4737 24.8947)" fill="#EDEDED"/>
<circle cx="9.10526" cy="21.9474" r="1.10526" transform="rotate(-90 9.10526 21.9474)" fill="#EDEDED"/>
<circle cx="12.7896" cy="19" r="1.10526" transform="rotate(-90 12.7896 19)" fill="#EDEDED"/>
<circle cx="16.4737" cy="21.9474" r="1.10526" transform="rotate(-90 16.4737 21.9474)" fill="#EDEDED"/>
<circle cx="9.10526" cy="19" r="1.10526" transform="rotate(-90 9.10526 19)" fill="#EDEDED"/>
<circle cx="12.7896" cy="16.0526" r="1.10526" transform="rotate(-90 12.7896 16.0526)" fill="#EDEDED"/>
<circle cx="12.7896" cy="13.1053" r="1.10526" transform="rotate(-90 12.7896 13.1053)" fill="#EDEDED"/>
<circle cx="16.4737" cy="19" r="1.10526" transform="rotate(-90 16.4737 19)" fill="#EDEDED"/>
</svg>
