<svg width="131" height="17" viewBox="0 0 131 17" fill="none" xmlns="http://www.w3.org/2000/svg">
<g clip-path="url(#clip0)">
<path d="M72.3096 4.94819C72.7257 4.90674 73.1412 5.0315 73.4659 5.29531C73.7905 5.55913 73.998 5.94067 74.0433 6.35694V6.63868C74.0433 7.66707 73.3751 8.25874 72.285 8.25874H70.154V9.92105H69.2749V4.94819H72.3096ZM72.3518 7.41349C72.5468 7.42616 72.739 7.36167 72.8869 7.23389C73.0349 7.10611 73.1269 6.92526 73.143 6.73025V6.61051C73.1638 6.40199 73.1015 6.19369 72.9699 6.03083C72.8382 5.86797 72.6477 5.76369 72.4397 5.74061H70.147V7.39588L72.3518 7.41349ZM77.3628 10.0197C75.7804 10.0197 74.4793 8.96311 74.4793 7.40645C74.4793 5.84979 75.7804 4.79323 77.3628 4.79323C78.9453 4.79323 80.2464 5.84979 80.2464 7.40645C80.2464 8.96311 78.9453 10.0197 77.3628 10.0197ZM77.3628 5.63496C76.8868 5.5999 76.4162 5.7545 76.0533 6.06513C75.6905 6.37577 75.4648 6.81732 75.4253 7.29375V7.39941C75.4253 8.42779 76.1778 9.18146 77.3593 9.18146C78.5409 9.18146 79.2934 8.42779 79.2934 7.39941C79.2934 6.37102 78.5444 5.63848 77.3593 5.63848L77.3628 5.63496ZM83.9528 10.0161C82.293 10.0161 81.0692 8.95959 81.0692 7.40293C81.0692 5.84627 82.3352 4.78971 83.9528 4.78971C84.7813 4.75874 85.5934 5.02613 86.242 5.54339L85.7673 6.24776C85.2611 5.84646 84.6369 5.62363 83.9914 5.61382C82.7677 5.61382 82.0152 6.36398 82.0152 7.35362C82.0152 8.34326 82.7677 9.15681 83.9914 9.15681C84.6455 9.16151 85.2825 8.94843 85.8024 8.55105L86.2736 9.25542C85.5948 9.74262 84.7808 10.0049 83.9457 10.0056L83.9528 10.0161ZM93.8552 8.66727L93.3031 9.8647H92.3185L94.7273 4.93411H95.6767L98.0855 9.8647H97.1009L96.5488 8.67784L93.8552 8.66727ZM94.242 7.87838H96.1409L95.1915 5.86035L94.242 7.87838Z" fill="black"/>
<path d="M102.9 9.89642V7.74809H99.6646V9.89642H98.7503V4.96582H99.6646V6.98385H102.9V4.94821H103.807V9.89642H102.9ZM105.186 9.89642V4.96582H106.1V7.26207L108.586 4.96582H109.694L107.162 7.33955L109.806 9.91051H108.582L106.096 7.49452V9.88938L105.186 9.89642ZM90.265 6.72675H88.134V5.70541H91.6505V4.91299H87.1846V9.8612H90.2263C91.2813 9.8612 92.0444 9.26249 92.0444 8.27637C92.0444 7.29025 91.3762 6.73379 90.265 6.73379V6.72675ZM90.3459 9.03004H88.1305V7.56143H90.3459C90.898 7.56143 91.2532 7.8784 91.2532 8.31511C91.2532 8.75182 90.9789 9.06526 90.3459 9.01948" fill="black"/>
<path d="M56.176 2.53574H66.0925V7.60017H56.176V2.53574Z" fill="#E9041E"/>
<path d="M56.176 7.34659H66.0925V12.2913H56.176V7.34659Z" fill="black"/>
<path d="M57.8816 7.07892H64.3168V7.67059H57.8816V7.07892Z" fill="black"/>
<path d="M0 0H5.33452V1.38409H1.77935V2.41247H3.4321C4.06774 2.36314 4.69975 2.54578 5.21145 2.92666C5.42179 3.09363 5.58906 3.30871 5.6992 3.55384C5.80934 3.79898 5.85914 4.067 5.84442 4.33541C5.85973 4.62467 5.80356 4.91325 5.68088 5.17556C5.5582 5.43788 5.3728 5.66584 5.14112 5.83924C4.57617 6.24184 3.8926 6.44277 3.20001 6.40978H0V0ZM3.08045 5.14191C3.32957 5.15031 3.5752 5.08143 3.78375 4.94469C3.86095 4.88365 3.92279 4.80534 3.96431 4.71605C4.00584 4.62675 4.0259 4.52895 4.02287 4.4305C4.02287 3.99731 3.70639 3.76134 3.07342 3.76134H1.77231V5.14543L3.08045 5.14191ZM12.6594 0L9.99388 4.9306C9.75422 5.41635 9.40218 5.83775 8.96706 6.15973C8.57002 6.4255 8.10124 6.56315 7.62376 6.55417C7.23096 6.56211 6.84074 6.48899 6.47738 6.33934L6.91343 5.00104C7.11548 5.07845 7.33007 5.11785 7.5464 5.11726C7.71154 5.11627 7.87415 5.07646 8.02113 5.00104C8.18266 4.89184 8.31733 4.74733 8.41497 4.57841L5.97804 0H7.87695L9.37849 3.08515L10.9011 0H12.6594ZM19.3196 4.98695V7.71639H17.6598V6.4133H13.5455V7.71639H11.8928V4.98695H12.1284C12.5222 4.98695 12.7614 4.7052 12.9196 4.19453C13.1108 3.47197 13.2031 2.72673 13.1939 1.97928L13.2748 0H18.444V4.98695H19.3196ZM14.6181 3.87404C14.5624 4.26707 14.4272 4.64457 14.2207 4.98343H16.633V1.46157H14.815V2.16594C14.7866 2.739 14.7208 3.30958 14.6181 3.87404ZM25.8357 0L23.2089 4.9306C22.9631 5.42457 22.601 5.85124 22.1539 6.17381C21.7569 6.43959 21.2881 6.57724 20.8106 6.56826C20.4263 6.56791 20.046 6.49006 19.6924 6.33934L20.1284 5.00104C20.3305 5.07845 20.5451 5.11785 20.7614 5.11726C20.9265 5.11627 21.0891 5.07646 21.2361 5.00104C21.3913 4.88983 21.5198 4.74548 21.6124 4.57841L19.1508 0H21.0497L22.5478 3.08515L24.1021 0H25.8357ZM34.6973 4.98695V0H32.8792V4.98695H31.2616V0H29.4436V4.98695H27.7803V0H26.0221V6.40978H33.8638V7.71287H35.5166V4.98343L34.6973 4.98695ZM41.2485 5.02217V6.40626H36.1144V0H41.143V1.38409H37.9078V2.4653H40.7562V3.8036H37.9078V4.99047L41.2485 5.02217ZM47.0507 5.02217V6.40626H41.8815V0H46.8995V1.38409H43.6643V2.4653H46.5056V3.8036H43.6643V4.99047L47.0507 5.02217ZM48.0353 2.60265H52.6068V3.63103H48.0353V2.60265ZM21.215 8.42428C21.7198 8.69211 22.1327 9.10559 22.4001 9.61115C22.6907 10.1379 22.8431 10.7298 22.8431 11.3316C22.8431 11.9334 22.6907 12.5253 22.4001 13.052C22.1327 13.5576 21.7198 13.971 21.215 14.2389C20.678 14.5216 20.0811 14.6714 19.4744 14.6756C18.9329 14.6693 18.3974 14.5618 17.8954 14.3586C17.4295 14.1602 17.0217 13.8463 16.7104 13.4464L17.8568 12.4181C18.0393 12.6528 18.2729 12.8427 18.5398 12.9733C18.8067 13.1039 19.0999 13.1718 19.397 13.1717C19.7545 13.1715 20.1033 13.0608 20.3957 12.8548C20.6698 12.6305 20.8606 12.3204 20.9372 11.9743H18.6023V10.636H20.895C20.8114 10.3038 20.6165 10.0105 20.3429 9.80485C20.0529 9.60205 19.7085 9.49158 19.3548 9.48788C19.0583 9.49138 18.7664 9.56081 18.5 9.69116C18.2336 9.8215 17.9995 10.0095 17.8146 10.2416L16.6682 9.20965C16.9791 8.81029 17.3872 8.49744 17.8532 8.30101C18.3552 8.09778 18.8907 7.99028 19.4322 7.98405C20.0524 7.9779 20.6643 8.12808 21.2115 8.42076L21.215 8.42428ZM28.5188 9.57241H26.5425V14.5558H24.7843V9.57241H22.7869V8.14605H28.5188V9.57241ZM30.1715 14.2389C29.79 14.042 29.4509 13.7717 29.1737 13.4435C28.8964 13.1153 28.6865 12.7356 28.5559 12.3261C28.4252 11.9166 28.3765 11.4854 28.4123 11.057C28.4482 10.6286 28.568 10.2115 28.7649 9.8295V9.80837C29.0772 9.21909 29.5585 8.737 30.1469 8.42428C30.7082 8.13109 31.3319 7.97799 31.9649 7.97799C32.598 7.97799 33.2217 8.13109 33.783 8.42428C34.1649 8.62082 34.5043 8.8909 34.7818 9.21905C35.0592 9.5472 35.2693 9.92697 35.4 10.3366C35.5307 10.7462 35.5794 11.1776 35.5432 11.6061C35.5071 12.0346 35.3869 12.4518 35.1896 12.8336V12.8548C34.8763 13.4433 34.3952 13.9251 33.8076 14.2389C33.2403 14.5118 32.6189 14.6535 31.9896 14.6535C31.3602 14.6535 30.7388 14.5118 30.1715 14.2389ZM32.8581 12.9358C33.1153 12.7779 33.3321 12.5621 33.4911 12.3054C33.6469 12.0127 33.7283 11.6861 33.7283 11.3545C33.7283 11.0228 33.6469 10.6962 33.4911 10.4036C33.354 10.1302 33.1319 9.90888 32.8581 9.77315C32.595 9.61764 32.2951 9.53561 31.9896 9.53561C31.684 9.53561 31.3841 9.61764 31.121 9.77315C30.8638 9.93098 30.647 10.1469 30.488 10.4036C30.3322 10.6962 30.2508 11.0228 30.2508 11.3545C30.2508 11.6861 30.3322 12.0127 30.488 12.3054C30.6361 12.5706 30.8554 12.789 31.121 12.9358C31.3841 13.0913 31.684 13.1733 31.9896 13.1733C32.2951 13.1733 32.595 13.0913 32.8581 12.9358ZM43.6045 11.7489C43.8075 12.0232 43.9183 12.3549 43.921 12.6963C43.9228 12.9577 43.8629 13.2158 43.7462 13.4496C43.6295 13.6834 43.4592 13.8863 43.2494 14.0416C42.6869 14.4075 42.0239 14.5874 41.354 14.5558H38.0731V8.10027H41.1957C41.8194 8.06107 42.4402 8.21343 42.9751 8.53698C43.187 8.66999 43.358 8.8592 43.4692 9.08362C43.5803 9.30804 43.6271 9.5589 43.6045 9.80837C43.6048 10.102 43.5232 10.3898 43.3689 10.6395C43.2081 10.8745 42.9903 11.0648 42.736 11.1925C43.0796 11.2751 43.3855 11.4711 43.6045 11.7489ZM39.8524 10.6924H40.9988C41.5122 10.6924 41.7514 10.4951 41.7514 10.0584C41.7514 9.62171 41.47 9.42449 40.9988 9.42449H39.8524V10.6924ZM42.0678 12.5942C42.0678 12.1574 41.7935 11.9602 41.2801 11.9602H39.8735V13.2633H41.2801C41.7935 13.2633 42.0678 13.0238 42.0678 12.5942ZM49.5228 10.6783C49.7399 10.8782 49.9094 11.1244 50.019 11.3987C50.1285 11.673 50.1753 11.9683 50.1558 12.2631C50.1705 12.581 50.1151 12.8982 49.9936 13.1922C49.872 13.4862 49.6873 13.7498 49.4525 13.9642C48.8851 14.3962 48.1801 14.6065 47.4692 14.5558H44.4274V8.10027H46.2067V10.157H47.7048C48.3506 10.1336 48.9872 10.3162 49.5228 10.6783ZM48.0635 12.9745C48.1543 12.8818 48.2255 12.7715 48.2726 12.6505C48.3198 12.5294 48.3419 12.4 48.3377 12.2701C48.3377 11.7137 48.0213 11.439 47.3531 11.439H46.2489V13.1999H47.3953C47.638 13.2015 47.8743 13.1222 48.067 12.9745H48.0635ZM50.8767 8.10731H52.656V14.5523H50.8767V8.10731ZM91.246 17C91.1458 17.0142 91.0436 17.0066 90.9466 16.9776C90.8495 16.9486 90.7599 16.899 90.6837 16.8321C90.6076 16.7652 90.5468 16.6827 90.5055 16.5901C90.4641 16.4975 90.4433 16.397 90.4443 16.2956V15.3623H90.7256V16.278C90.7256 16.5598 90.9084 16.7288 91.232 16.7288C91.5555 16.7288 91.7419 16.5633 91.7419 16.278V15.3623H92.0372V16.3062C92.0365 16.4057 92.0148 16.5039 91.9734 16.5944C91.932 16.6849 91.872 16.7656 91.7972 16.8311C91.7225 16.8967 91.6347 16.9456 91.5397 16.9747C91.4447 17.0038 91.3446 17.0124 91.246 17ZM89.1713 17C88.946 17.0108 88.7254 16.9334 88.5561 16.7842C88.3868 16.635 88.282 16.4257 88.264 16.2005C88.2621 16.1889 88.2621 16.177 88.264 16.1653C88.2843 15.9327 88.3908 15.7161 88.5627 15.5583C88.7346 15.4006 88.9592 15.313 89.1924 15.313C89.4255 15.313 89.6502 15.4006 89.8221 15.5583C89.9939 15.7161 90.1005 15.9327 90.1207 16.1653C90.1212 16.2808 90.0973 16.3951 90.0507 16.5007C90.004 16.6063 89.9356 16.7008 89.85 16.7781C89.665 16.9309 89.4321 17.0132 89.1924 17.0106L89.1713 17ZM89.1713 15.5913C89.0227 15.5858 88.8779 15.6383 88.7673 15.7378C88.6566 15.8373 88.589 15.9759 88.5785 16.1244C88.568 16.2729 88.6155 16.4197 88.711 16.5338C88.8065 16.6479 88.9426 16.7203 89.0904 16.7359H89.1713C89.3205 16.7429 89.4666 16.6913 89.5784 16.5921C89.6902 16.4929 89.7589 16.3539 89.7699 16.2047C89.7809 16.0555 89.7333 15.9079 89.6373 15.7933C89.5412 15.6787 89.4043 15.6062 89.2557 15.5913H89.1713ZM85.2574 17C85.0141 17.0055 84.7769 16.9229 84.5893 16.7676C84.5036 16.6905 84.4354 16.5959 84.3893 16.4902C84.3432 16.3845 84.3202 16.2701 84.322 16.1548C84.325 16.037 84.3519 15.9212 84.4012 15.8143C84.4506 15.7074 84.5212 15.6117 84.6088 15.5332C84.6965 15.4547 84.7992 15.3949 84.9108 15.3577C85.0223 15.3204 85.1403 15.3064 85.2574 15.3166C85.5252 15.3101 85.7875 15.3931 86.0029 15.5525L85.8447 15.785C85.6793 15.6584 85.4761 15.5914 85.268 15.5948H85.2469C85.1732 15.588 85.0989 15.5958 85.0283 15.6178C84.9576 15.6398 84.892 15.6756 84.8352 15.723C84.7784 15.7705 84.7314 15.8286 84.6971 15.8943C84.6627 15.9599 84.6416 16.0317 84.635 16.1054V16.1548C84.6369 16.3067 84.6984 16.4518 84.8064 16.5586C84.9143 16.6654 85.06 16.7253 85.2117 16.7253H85.2715C85.4277 16.7258 85.5822 16.6934 85.7251 16.6302V16.1583H86.0135V16.7781C85.7868 16.9202 85.5249 16.9959 85.2574 16.9965V17ZM58.9646 17C58.7257 17.0043 58.4933 16.9217 58.3105 16.7676C58.2231 16.6923 58.1532 16.5987 58.1058 16.4934C58.0584 16.3882 58.0346 16.2738 58.0362 16.1583C58.0436 15.9282 58.1417 15.7103 58.3092 15.5526C58.4766 15.3948 58.6996 15.3099 58.9294 15.3166H58.9646C59.0778 15.3084 59.1915 15.3228 59.2991 15.3587C59.4068 15.3947 59.5063 15.4517 59.5919 15.5263C59.6775 15.6009 59.7475 15.6917 59.798 15.7935C59.8484 15.8953 59.8783 16.0061 59.8859 16.1195V16.1548C59.8845 16.2674 59.861 16.3788 59.8165 16.4823C59.7721 16.5858 59.7077 16.6796 59.627 16.7581C59.5462 16.8366 59.4508 16.8984 59.3462 16.9399C59.2416 16.9815 59.1299 17.0019 59.0173 17H58.9646ZM58.9646 15.5913C58.8869 15.579 58.8075 15.5829 58.7314 15.6027C58.6553 15.6225 58.5841 15.6578 58.5222 15.7064C58.4603 15.7549 58.409 15.8157 58.3715 15.885C58.3341 15.9542 58.3113 16.0305 58.3045 16.1089C58.2977 16.1874 58.3072 16.2664 58.3322 16.3411C58.3572 16.4157 58.3973 16.4844 58.45 16.5429C58.5027 16.6014 58.5668 16.6484 58.6384 16.681C58.71 16.7136 58.7875 16.731 58.8661 16.7323H58.9646C59.0424 16.7446 59.122 16.7407 59.1983 16.7209C59.2745 16.701 59.3459 16.6656 59.4079 16.6168C59.4699 16.5681 59.5212 16.5071 59.5585 16.4376C59.5959 16.3681 59.6186 16.2916 59.6251 16.213C59.6317 16.1343 59.622 16.0551 59.5966 15.9804C59.5712 15.9057 59.5307 15.837 59.4776 15.7787C59.4245 15.7203 59.36 15.6736 59.2881 15.6413C59.2161 15.6091 59.1383 15.592 59.0595 15.5913H58.9646ZM69.6794 17C69.4361 17.0045 69.1993 16.9221 69.0112 16.7676C68.9258 16.691 68.8577 16.5971 68.8116 16.492C68.7655 16.3868 68.7424 16.2731 68.744 16.1583C68.7469 16.0406 68.7738 15.9247 68.8232 15.8178C68.8725 15.7109 68.9431 15.6152 69.0308 15.5367C69.1184 15.4582 69.2211 15.3984 69.3327 15.3612C69.4442 15.3239 69.5622 15.3099 69.6794 15.3201C69.9457 15.3123 70.2069 15.3942 70.4213 15.5525L70.2631 15.7885C70.0997 15.6582 69.8951 15.5908 69.6864 15.5983H69.6688C69.5953 15.5915 69.5212 15.5994 69.4508 15.6214C69.3804 15.6435 69.315 15.6793 69.2584 15.7268C69.2019 15.7742 69.1553 15.8324 69.1213 15.898C69.0873 15.9636 69.0666 16.0353 69.0604 16.109C69.0586 16.1254 69.0586 16.1419 69.0604 16.1583C69.064 16.3063 69.1246 16.4471 69.2294 16.5515C69.3343 16.6558 69.4753 16.7156 69.6231 16.7183H69.6864C69.8425 16.7183 69.997 16.6859 70.14 16.6232V16.1583H70.4213V16.7746C70.1982 16.916 69.9399 16.9917 69.6758 16.993L69.6794 17ZM61.0991 17C60.857 17.0043 60.6213 16.9219 60.4345 16.7676C60.3477 16.6921 60.2788 16.5983 60.2326 16.493C60.1864 16.3876 60.164 16.2733 60.1672 16.1583C60.1697 16.0407 60.1962 15.9249 60.2451 15.818C60.2941 15.7111 60.3644 15.6154 60.4517 15.5369C60.5391 15.4583 60.6416 15.3985 60.753 15.3612C60.8643 15.3239 60.9821 15.3099 61.0991 15.3201C61.366 15.312 61.6277 15.3952 61.8411 15.556L61.6828 15.7885C61.5183 15.6599 61.3148 15.5915 61.1061 15.5948C60.9568 15.5809 60.8079 15.6263 60.6916 15.7211C60.5752 15.8159 60.5006 15.9526 60.4837 16.1019C60.4818 16.1183 60.4818 16.1349 60.4837 16.1512C60.4842 16.2262 60.4994 16.3003 60.5284 16.3693C60.5575 16.4383 60.5998 16.501 60.6531 16.5536C60.7063 16.6063 60.7693 16.6479 60.8386 16.6762C60.9079 16.7044 60.9821 16.7187 61.0569 16.7183H61.1202C61.3304 16.7213 61.5358 16.6545 61.7039 16.5281L61.8587 16.7605C61.6389 16.9217 61.3712 17.0036 61.0991 16.993V17ZM57.0059 17C56.7163 17.0066 56.4305 16.9335 56.1795 16.7887L56.2921 16.5422C56.5059 16.6663 56.7482 16.7331 56.9954 16.7359C57.2943 16.7359 57.4701 16.6549 57.4701 16.514C57.4701 16.3731 57.2415 16.3308 56.9778 16.2886C56.6261 16.2287 56.2041 16.1618 56.2041 15.7955C56.2041 15.5138 56.4855 15.3377 56.9321 15.3377C57.1871 15.3329 57.4398 15.3871 57.6705 15.4962L57.551 15.7357C57.3573 15.6476 57.1482 15.5986 56.9356 15.5913C56.6543 15.5913 56.5066 15.6511 56.5066 15.7674C56.5066 15.8836 56.7176 15.9258 56.9637 15.9681C57.3154 16.028 57.7795 16.1019 57.7795 16.4964C57.7901 16.7957 57.4912 16.9824 57.0059 16.9824V17ZM86.7133 16.9718H86.4179V15.3623H87.4447C87.5096 15.355 87.5753 15.3606 87.6381 15.3788C87.7008 15.3969 87.7594 15.4274 87.8103 15.4683C87.8613 15.5092 87.9037 15.5598 87.9351 15.6171C87.9665 15.6745 87.9863 15.7375 87.9933 15.8026C87.995 15.8248 87.995 15.8472 87.9933 15.8695C87.9918 15.9941 87.9436 16.1136 87.8583 16.2043C87.773 16.295 87.6567 16.3502 87.5326 16.359L88.0108 16.9577H87.6381L87.2091 16.3661H86.7308V16.9542L86.7133 16.9718ZM86.7133 15.6406V16.1195H87.4166C87.5924 16.1195 87.7049 16.0315 87.7049 15.8871C87.7088 15.826 87.6884 15.7658 87.6483 15.7197C87.6081 15.6735 87.5514 15.6451 87.4904 15.6406H86.7168H86.7133ZM92.7616 16.9718H92.4662V15.3623H93.4579C93.527 15.3566 93.5966 15.3646 93.6626 15.386C93.7286 15.4074 93.7897 15.4416 93.8424 15.4869C93.895 15.5321 93.9382 15.5873 93.9694 15.6494C94.0006 15.7114 94.0192 15.7791 94.024 15.8484C94.0258 15.8671 94.0258 15.886 94.024 15.9047C94.0269 15.9705 94.0166 16.0362 93.9938 16.098C93.971 16.1598 93.9362 16.2164 93.8914 16.2646C93.8466 16.3128 93.7926 16.3515 93.7327 16.3786C93.6727 16.4057 93.608 16.4206 93.5423 16.4224C93.5131 16.4261 93.4836 16.4261 93.4544 16.4224H92.7511V16.9577L92.7616 16.9718ZM92.7616 15.6406V16.1688H93.4649C93.5278 16.1717 93.5892 16.1497 93.636 16.1075C93.6827 16.0653 93.711 16.0064 93.7146 15.9434V15.9188C93.7195 15.8502 93.697 15.7825 93.6522 15.7304C93.6075 15.6782 93.5439 15.646 93.4755 15.6406H92.7511H92.7616ZM78.5198 16.9683H78.2033L78.977 15.3835H79.2864L80.06 16.9683H79.7436L79.5607 16.5562H78.6992L78.5163 16.9437L78.5198 16.9683ZM79.1282 15.6652L78.8187 16.3097H79.4341L79.1282 15.6652ZM76.8003 16.9542H76.5049V15.3694H77.5247C77.6546 15.3555 77.7848 15.3936 77.8869 15.4754C77.989 15.5572 78.0547 15.676 78.0697 15.8061C78.0715 15.8284 78.0715 15.8507 78.0697 15.873C78.07 15.997 78.0234 16.1164 77.9392 16.2073C77.855 16.2981 77.7395 16.3536 77.6161 16.3625L78.0873 16.9542H77.7145L77.2644 16.3696H76.8003V16.9577V16.9542ZM76.8003 15.6265V16.1054H77.5036C77.6794 16.1054 77.7919 16.0139 77.7919 15.8695C77.7943 15.8396 77.7907 15.8095 77.7814 15.781C77.772 15.7525 77.757 15.7262 77.7374 15.7036C77.7178 15.6809 77.6938 15.6625 77.6669 15.6492C77.64 15.636 77.6108 15.6283 77.5809 15.6265H76.8073H76.8003ZM72.9321 16.9542H72.6438V15.3694H72.9462L74.0011 16.5598L73.98 15.7779V15.3694H74.2684V16.9542H73.9695L72.9356 15.7568V16.9542H72.9321ZM83.3515 16.9542H81.8499V15.3694H83.2987V15.63H82.1453V16.0174H83.042V16.2815H82.1453V16.6971H83.3409V16.9577L83.3515 16.9542ZM81.6179 16.9542H80.2605V15.3694H80.5559V16.6936H81.6108V16.9542H81.6179ZM76.1814 16.9542H74.6974V15.3694H76.1497V15.63H74.9893V16.0174H75.8895V16.2815H74.9893V16.6971H76.1954V16.9577L76.1814 16.9542ZM72.3132 16.9542H70.8117V15.3694H72.264V15.63H71.1035V16.0174H72.0038V16.2815H71.1035V16.6971H72.3097V16.9577L72.3132 16.9542ZM67.8262 16.9542H66.3246V15.3694H67.7734V15.63H66.62V16.0174H67.5167V16.2815H66.62V16.6971H67.8226V16.9577L67.8262 16.9542ZM65.1396 16.9542V15.623H64.4925V15.3659H66.1101V15.623H65.4631V16.9542H65.1396ZM64.3589 16.9542H62.8574V15.3694H64.3519V15.63H63.1914V16.0174H64.0916V16.2815H63.1914V16.6971H64.3976V16.9577L64.3589 16.9542ZM62.1435 16.9542V15.3694H62.4389V16.9542H62.1435Z" fill="black"/>
</g>
<defs>
<clipPath id="clip0">
<rect width="131" height="17" fill="white"/>
</clipPath>
</defs>
</svg>
